<svg width="227" height="72" viewBox="0 0 227 72" fill="none" xmlns="http://www.w3.org/2000/svg">
<path d="M150.518 41.1C150.518 41.408 150.266 41.66 149.958 41.66H148.334V45.44C148.334 45.748 148.082 46 147.774 46H143.182C142.874 46 142.65 45.748 142.65 45.44V41.66H134.838C134.53 41.66 134.278 41.408 134.278 41.1V37.936C134.278 37.628 134.39 37.348 134.586 37.096L143.658 25.448C143.826 25.224 144.05 25.196 144.33 25.196H147.774C148.082 25.196 148.334 25.448 148.334 25.756V37.348H149.958C150.266 37.348 150.518 37.6 150.518 37.908V41.1ZM142.874 37.348V32.028C142.874 31.972 142.846 31.916 142.818 31.916C142.79 31.916 142.762 31.944 142.734 31.972L138.87 37.096C138.814 37.18 138.786 37.236 138.786 37.264C138.786 37.32 138.842 37.348 138.926 37.348H142.874Z" fill="#DD2222"/>
<path d="M131.618 45.44C131.618 45.748 131.338 46 131.03 46H126.97C126.662 46 126.382 45.748 126.382 45.44V41.548C126.382 41.24 126.662 40.988 126.97 40.988H131.03C131.338 40.988 131.618 41.24 131.618 41.548V45.44Z" fill="#DD2222"/>
<path d="M123.721 41.1C123.721 41.408 123.469 41.66 123.161 41.66H121.537V45.44C121.537 45.748 121.285 46 120.977 46H116.385C116.077 46 115.853 45.748 115.853 45.44V41.66H108.041C107.733 41.66 107.481 41.408 107.481 41.1V37.936C107.481 37.628 107.593 37.348 107.789 37.096L116.861 25.448C117.029 25.224 117.253 25.196 117.533 25.196H120.977C121.285 25.196 121.537 25.448 121.537 25.756V37.348H123.161C123.469 37.348 123.721 37.6 123.721 37.908V41.1ZM116.077 37.348V32.028C116.077 31.972 116.049 31.916 116.021 31.916C115.993 31.916 115.965 31.944 115.937 31.972L112.073 37.096C112.017 37.18 111.989 37.236 111.989 37.264C111.989 37.32 112.045 37.348 112.129 37.348H116.077Z" fill="#DD2222"/>
<mask id="mask0_4920_224" style="mask-type:alpha" maskUnits="userSpaceOnUse" x="156" y="23" width="24" height="24">
<path d="M179.555 31.6816C179.336 31.0939 178.776 30.7035 178.149 30.7016H172.062C171.85 30.7018 171.66 30.5679 171.59 30.3676L169.405 24.1746C169.186 23.5885 168.626 23.2 168 23.2C167.374 23.2 166.814 23.5885 166.595 24.1746L166.59 24.1906L164.41 30.3676C164.34 30.5675 164.151 30.7013 163.939 30.7016H157.85C157.219 30.7011 156.655 31.0961 156.439 31.6895C156.223 32.2829 156.402 32.9478 156.887 33.3526L162.071 37.6526C162.23 37.7843 162.291 38 162.226 38.1956L160.048 44.7266C159.841 45.3462 160.06 46.0283 160.587 46.4131C161.115 46.7978 161.831 46.7968 162.358 46.4106L167.704 42.4906C167.88 42.3617 168.119 42.3617 168.295 42.4906L173.639 46.4096C174.165 46.7972 174.882 46.7991 175.411 46.4143C175.939 46.0295 176.158 45.3468 175.951 44.7266L173.773 38.1916C173.708 37.996 173.769 37.7803 173.928 37.6486L179.122 33.3426C179.6 32.9344 179.773 32.2713 179.555 31.6816Z" fill="#F9FAFB"/>
</mask>
<g mask="url(#mask0_4920_224)">
<rect x="156" y="23" width="24" height="24" fill="#CED8E3"/>
<rect x="156" y="23" width="21" height="24" fill="#DD2222"/>
</g>
<path d="M66 25C66 21.6863 68.6863 19 72 19H88C91.3137 19 94 21.6863 94 25V41C94 44.3137 91.3137 47 88 47H72C68.6863 47 66 44.3137 66 41V25Z" fill="url(#paint0_linear_4920_224)"/>
<path d="M75.1068 39.3847L75.1094 39.3856L74.1647 41.0217C73.8199 41.619 73.0562 41.8236 72.4589 41.4788C71.8617 41.134 71.6571 40.3703 72.0019 39.773L72.6978 38.5677L72.7646 38.4521C72.8838 38.2806 73.1782 37.9848 73.7669 38.0404C73.7669 38.0404 75.1523 38.1907 75.2526 38.9108C75.2526 38.9108 75.2663 39.1478 75.1068 39.3847ZM88.5051 35.2057H85.5594C85.3588 35.1923 85.2711 35.1207 85.2368 35.079L85.2346 35.0752L82.0812 29.6135L82.0772 29.6162L81.888 29.345C81.5781 28.8711 81.0859 30.0833 81.0859 30.0833C80.4983 31.4341 81.1693 32.9698 81.4033 33.434L85.7831 41.02C86.1279 41.6173 86.8916 41.8219 87.4889 41.4771C88.0861 41.1323 88.2907 40.3686 87.9459 39.7713L86.8507 37.8744C86.8295 37.8284 86.7926 37.7036 87.0172 37.7031H88.5051C89.1948 37.7031 89.7539 37.1441 89.7539 36.4544C89.7539 35.7648 89.1948 35.2057 88.5051 35.2057ZM82.7835 36.9033C82.7835 36.9033 82.9408 37.7031 82.3324 37.7031H81.724V37.7031H71.4427C70.753 37.7031 70.194 37.1441 70.194 36.4544C70.194 35.7648 70.753 35.2057 71.4427 35.2057H74.2423C74.6943 35.1795 74.8014 34.9186 74.8014 34.9186L74.8039 34.9199L78.4583 28.5902L78.4573 28.59C78.5239 28.4677 78.4684 28.3521 78.4588 28.3339L77.2519 26.2435C76.9071 25.6463 77.1117 24.8826 77.7089 24.5377C78.3062 24.1929 79.0699 24.3976 79.4147 24.9948L79.9744 25.9643L80.5332 24.9965C80.878 24.3993 81.6417 24.1946 82.2389 24.5395C82.8362 24.8843 83.0408 25.648 82.696 26.2452L77.6107 35.0531C77.5885 35.1067 77.5817 35.1909 77.7471 35.2057H80.7868L80.7874 35.2353C80.7874 35.2353 82.5443 35.2627 82.7835 36.9033Z" fill="white"/>
<path d="M47 28V51.0356C47 52.1189 47.8786 52.9994 48.9638 52.9994H73.8252C74.9085 52.9994 75.789 52.1208 75.789 51.0356L75.7871 28H47ZM58.1229 30.7498H64.6642C65.3877 30.7498 65.9729 31.3351 65.9729 32.0585C65.9729 32.7801 65.3877 33.3673 64.6642 33.3673H58.1229C57.3994 33.3673 56.8142 32.782 56.8142 32.0585C56.8142 31.3351 57.3994 30.7498 58.1229 30.7498Z" fill="#F1F3F4"/>
<path d="M47 28V51.0356C47 52.1189 47.8786 52.9994 48.9638 52.9994H73.8252C74.9085 52.9994 75.789 52.1208 75.789 51.0356L75.7871 28H47ZM58.1229 30.7498H64.6642C65.3877 30.7498 65.9729 31.3351 65.9729 32.0585C65.9729 32.7801 65.3877 33.3673 64.6642 33.3673H58.1229C57.3994 33.3673 56.8142 32.782 56.8142 32.0585C56.8142 31.3351 57.3994 30.7498 58.1229 30.7498Z" fill="#F1F3F4"/>
<path d="M47 28V40.5659H75.7871V28H47ZM58.1229 30.7498H64.6642C65.3877 30.7498 65.9729 31.3351 65.9729 32.0585C65.9729 32.7801 65.3877 33.3673 64.6642 33.3673H58.1229C57.3994 33.3673 56.8142 32.782 56.8142 32.0585C56.8142 31.3351 57.3994 30.7498 58.1229 30.7498Z" fill="#E8EAED"/>
<path d="M61.3912 38.603C56.7909 38.603 52.7759 41.1012 50.6263 44.817L52.3405 50.0459L54.986 52.9984H56.6705L61.3912 44.8188L72.156 44.8169C70.0065 41.1012 65.9914 38.603 61.3912 38.603Z" fill="url(#paint1_linear_4920_224)"/>
<path d="M50.6304 44.8173C49.2164 47.2727 48.6681 50.168 49.1201 52.9987H55.3526L50.6304 44.8173Z" fill="url(#paint2_linear_4920_224)"/>
<path d="M61.3918 44.8196L66.114 52.9992H73.667C74.119 50.1691 73.5706 47.2749 72.1567 44.8196H61.3918Z" fill="url(#paint3_linear_4920_224)"/>
<path d="M61.3935 44.8196C57.9617 44.8196 55.1796 47.6025 55.1796 51.0354C55.1796 51.722 55.2929 52.3817 55.4984 52.9992H67.2886C67.4941 52.3817 67.6075 51.722 67.6075 51.0354C67.6075 47.6025 64.8253 44.8196 61.3935 44.8196Z" fill="#F1F3F4"/>
<path d="M61.392 45.9854C60.729 45.9853 60.0724 46.116 59.4598 46.3698C58.8472 46.6237 58.2906 46.9957 57.8218 47.4647C57.3529 47.9338 56.981 48.4906 56.7272 49.1034C56.4735 49.7162 56.3429 50.373 56.3429 51.0363C56.3458 51.7115 56.4841 52.3793 56.7494 53.0001H66.0347C66.3 52.3793 66.4382 51.7115 66.4412 51.0363C66.4412 50.373 66.3106 49.7162 66.0568 49.1034C65.8031 48.4906 65.4312 47.9338 64.9623 47.4647C64.4935 46.9957 63.9368 46.6237 63.3243 46.3698C62.7117 46.116 62.0551 45.9853 61.392 45.9854Z" fill="#1A73E8"/>
<path opacity="0.1" d="M75.7871 40.5669H47V40.7298H75.7871V40.5669Z" fill="#BDC1C6"/>
<path opacity="0.1" d="M75.7871 40.4012H47V40.5641H75.7871V40.4012Z" fill="#BDC1C6"/>
<defs>
<linearGradient id="paint0_linear_4920_224" x1="80" y1="47" x2="80" y2="19" gradientUnits="userSpaceOnUse">
<stop stop-color="#1D76F2"/>
<stop offset="1" stop-color="#1AC2FB"/>
</linearGradient>
<linearGradient id="paint1_linear_4920_224" x1="50.6263" y1="46.3727" x2="72.1561" y2="46.3727" gradientUnits="userSpaceOnUse">
<stop stop-color="#D93025"/>
<stop offset="1" stop-color="#EA4335"/>
</linearGradient>
<linearGradient id="paint2_linear_4920_224" x1="62.7417" y1="62.6897" x2="51.9745" y2="44.0411" gradientUnits="userSpaceOnUse">
<stop stop-color="#1E8E3E"/>
<stop offset="1" stop-color="#34A853"/>
</linearGradient>
<linearGradient id="paint3_linear_4920_224" x1="70.3766" y1="44.7944" x2="59.6098" y2="63.4425" gradientUnits="userSpaceOnUse">
<stop stop-color="#FBBC04"/>
<stop offset="1" stop-color="#FCC934"/>
</linearGradient>
</defs>
</svg>
