<svg width="227" height="72" viewBox="0 0 227 72" fill="none" xmlns="http://www.w3.org/2000/svg">
<path d="M114.721 41.1V37.908C114.721 37.6 114.469 37.348 114.161 37.348H112.537V25.756C112.537 25.448 112.285 25.196 111.977 25.196H108.533C108.253 25.196 108.029 25.224 107.861 25.448L98.7894 37.096C98.5934 37.348 98.4814 37.628 98.4814 37.936V41.1C98.4814 41.408 98.7334 41.66 99.0414 41.66H106.853V45.44C106.853 45.748 107.077 46 107.385 46H111.977C112.285 46 112.537 45.748 112.537 45.44V41.66H114.161C114.469 41.66 114.721 41.408 114.721 41.1ZM107.077 37.348H103.129C103.045 37.348 102.989 37.32 102.989 37.264C102.989 37.236 103.017 37.18 103.073 37.096L106.937 31.972C106.965 31.944 106.993 31.916 107.021 31.916C107.049 31.916 107.077 31.972 107.077 32.028V37.348Z" fill="#DD2222"/>
<path d="M122.618 45.44V41.548C122.618 41.24 122.338 40.988 122.03 40.988H117.97C117.662 40.988 117.382 41.24 117.382 41.548V45.44C117.382 45.748 117.662 46 117.97 46H122.03C122.338 46 122.618 45.748 122.618 45.44Z" fill="#DD2222"/>
<path d="M140.51 39.336V39.056C140.51 34.884 138.074 32.812 132.642 32.812H131.494L131.774 29.732H139.39C139.698 29.732 139.95 29.508 139.95 29.2V25.728C139.95 25.42 139.698 25.196 139.39 25.196H127.798C127.49 25.196 127.266 25.448 127.238 25.728L126.37 36.62C126.37 36.648 126.37 36.648 126.37 36.676C126.37 36.956 126.566 37.124 126.846 37.124H131.746C134.07 37.124 134.714 37.684 134.714 39.056V39.336C134.714 41.044 134.266 41.744 131.578 41.744C130.85 41.744 128.218 41.576 126.902 41.436C126.874 41.436 126.874 41.436 126.846 41.436C126.566 41.436 126.314 41.66 126.314 41.968V44.74C126.314 45.104 126.622 45.216 126.902 45.328C128.554 45.916 130.626 46.252 132.558 46.252C137.458 46.252 140.51 43.984 140.51 39.336Z" fill="#DD2222"/>
<path d="M74.2561 22.3117C74.1329 22.5721 71.4041 28.0784 71.4041 28.0784C71.4041 28.0784 71.1884 28.0922 71.0664 28.0945C69.7197 28.15 68.7167 28.4548 67.6416 28.9954C65.2467 30.2109 63.6271 32.5022 63.3178 35.1124C63.1588 36.4162 63.3441 37.7378 63.8563 38.9524C64.2893 39.9793 64.9018 40.8914 65.723 41.6614C66.9826 42.8437 68.4817 43.5758 70.2192 43.8182C71.8647 44.0479 73.4472 43.8205 74.93 43.0957C75.4863 42.8242 75.9594 42.5244 76.5125 42.1132C76.583 42.0688 76.6456 42.0125 76.7306 41.9485C77.7895 43.7359 78.8366 45.5029 79.8829 47.268C75.2497 50.7182 68.0412 51.1352 62.7048 47.162C56.5639 42.5861 55.5546 34.7782 58.8423 29.1578C62.6237 22.6931 69.7 21.2634 74.2561 22.3117ZM81.4016 33.9381L85 39.9824L81.3721 46.0604L77.8324 40.0448H70.6593L74.2809 33.9381H81.4016ZM78.7689 22.9955C79.6716 23.0128 80.5108 23.2314 81.219 23.8203C81.7418 24.2549 82.0098 24.8062 82.0571 25.4644C82.1358 26.5748 81.6634 27.4252 80.7254 28.0187C80.1742 28.3679 79.5798 28.6378 78.9838 28.9575C78.6551 29.134 78.3741 29.2891 78.0529 29.6084C77.7702 29.9289 77.7564 30.231 77.7564 30.231L82.0264 30.2256V32.0754H75.4355V31.8966C75.4103 30.9876 75.5193 30.1322 75.9472 29.3067C76.3409 28.5493 76.9526 27.9949 77.6876 27.568C78.2536 27.2391 78.8496 26.9592 79.4169 26.6318C79.7668 26.4301 80.014 26.1341 80.0121 25.7049C80.0121 25.3365 79.7365 25.0092 79.3429 24.9069C78.4146 24.6634 77.4699 25.052 76.9786 25.8783C76.9069 25.9989 76.8337 26.1188 76.7408 26.2735C76.472 26.0162 76.2228 25.7788 75.9748 25.5398C75.8268 25.3974 75.6843 25.2492 75.5327 25.1102L75.4913 25.0705L75.4254 25.003C75.4186 24.9958 75.4146 24.9915 75.4146 24.9915C75.4146 24.9915 75.4275 24.9649 75.4432 24.9329L75.4882 24.8414C75.7784 24.2752 76.233 23.8613 76.7723 23.532C77.3687 23.1651 78.0635 22.9784 78.7689 22.9955Z" fill="#FF492C"/>
<mask id="mask0_2025_25672" style="mask-type:alpha" maskUnits="userSpaceOnUse" x="147" y="23" width="24" height="24">
<path d="M170.555 31.6817C170.336 31.094 169.776 30.7035 169.149 30.7017H163.062C162.85 30.7018 162.66 30.5679 162.59 30.3677L160.405 24.1747C160.186 23.5885 159.626 23.2 159 23.2C158.374 23.2 157.814 23.5885 157.595 24.1747L157.59 24.1907L155.41 30.3677C155.339 30.5676 155.151 30.7014 154.939 30.7017H148.85C148.218 30.7012 147.654 31.0961 147.439 31.6895C147.223 32.2829 147.402 32.9478 147.887 33.3527L153.071 37.6527C153.23 37.7844 153.291 38 153.226 38.1957L151.048 44.7267C150.841 45.3463 151.059 46.0284 151.587 46.4131C152.115 46.7979 152.831 46.7969 153.358 46.4107L158.704 42.4907C158.88 42.3618 159.119 42.3618 159.295 42.4907L164.639 46.4097C165.165 46.7972 165.882 46.7991 166.411 46.4144C166.939 46.0296 167.158 45.3468 166.951 44.7267L164.773 38.1917C164.708 37.996 164.769 37.7804 164.928 37.6487L170.122 33.3427C170.6 32.9345 170.773 32.2714 170.555 31.6817Z" fill="#F9FAFB"/>
</mask>
<g mask="url(#mask0_2025_25672)">
<rect x="147" y="23" width="24" height="24" fill="#CED8E3"/>
<rect x="147" y="23" width="21" height="24" fill="#DD2222"/>
</g>
</svg>
