<svg width="60" height="60" viewBox="0 0 60 60" fill="none" xmlns="http://www.w3.org/2000/svg">
<path d="M44.7246 23.263L49.7246 14.5584C49.8587 14.3189 49.8936 14.0359 49.8218 13.7707C49.75 13.5055 49.5773 13.2794 49.341 13.1414C49.1047 13.0033 48.8239 12.9645 48.5594 13.0332C48.2948 13.102 48.0678 13.2728 47.9275 13.5086L42.8696 22.3152C38.8321 20.4891 34.4557 19.545 30.029 19.545C25.6023 19.545 21.2259 20.4891 17.1884 22.3152L12.1304 13.5086C11.9901 13.2728 11.7631 13.102 11.4986 13.0332C11.2341 12.9645 10.9532 13.0033 10.717 13.1414C10.4807 13.2794 10.3079 13.5055 10.2361 13.7707C10.1643 14.0359 10.1993 14.3189 10.3333 14.5584L15.3333 23.263C6.71014 27.9579 0.855072 36.6916 0 47H60C59.1449 36.6916 53.2754 27.9579 44.7246 23.263ZM16.2029 38.3975C15.7099 38.3975 15.2279 38.2504 14.818 37.9749C14.4081 37.6993 14.0886 37.3076 13.8999 36.8494C13.7112 36.3911 13.6619 35.8869 13.758 35.4004C13.8542 34.9139 14.0916 34.4671 14.4403 34.1164C14.7889 33.7656 15.233 33.5268 15.7166 33.43C16.2001 33.3333 16.7013 33.3829 17.1568 33.5727C17.6123 33.7625 18.0016 34.084 18.2755 34.4964C18.5495 34.9088 18.6957 35.3937 18.6957 35.8897C18.6957 36.5548 18.433 37.1927 17.9655 37.663C17.4981 38.1333 16.864 38.3975 16.2029 38.3975V38.3975ZM43.8261 38.3975C43.3331 38.3975 42.8511 38.2504 42.4412 37.9749C42.0313 37.6993 41.7118 37.3076 41.5231 36.8494C41.3344 36.3911 41.285 35.8869 41.3812 35.4004C41.4774 34.9139 41.7148 34.4671 42.0634 34.1164C42.4121 33.7656 42.8562 33.5268 43.3398 33.43C43.8233 33.3333 44.3245 33.3829 44.78 33.5727C45.2355 33.7625 45.6248 34.084 45.8987 34.4964C46.1726 34.9088 46.3188 35.3937 46.3188 35.8897C46.3188 36.5548 46.0562 37.1927 45.5887 37.663C45.1212 38.1333 44.4872 38.3975 43.8261 38.3975V38.3975Z" fill="#3DDC84"/>
</svg>
