<svg width="400" height="200" viewBox="0 0 400 200" fill="none" xmlns="http://www.w3.org/2000/svg">
<g clip-path="url(#clip0_418_46434)">
<rect width="400" height="200" fill="#EC8383"/>
<path d="M63 71H57V77H63V71Z" stroke="#6CB4E4" stroke-width="1.89445" stroke-linecap="round" stroke-linejoin="round"/>
<path d="M316 38C318.206 38 320 36.2114 320 34C320 31.7886 318.211 30 316 30C313.789 30 312 31.7886 312 34C312 36.2114 313.789 38 316 38Z" stroke="#6CB4E4" stroke-width="1.66576" stroke-linecap="round" stroke-linejoin="round"/>
<path d="M94.1549 23.0242C94.2615 22.569 94.4891 22.1525 94.8232 21.8232C95.1525 21.4939 95.569 21.2663 96.0242 21.1598L99.7627 20.2978C99.8305 20.2833 99.8934 20.2446 99.937 20.1913C99.9806 20.138 100.005 20.0702 100.005 19.9976C100.005 19.9249 99.9806 19.8571 99.937 19.8039C99.8934 19.7506 99.8305 19.7119 99.7627 19.6973L96.0242 18.8353C95.569 18.7288 95.1574 18.5012 94.8281 18.1719C94.4988 17.8426 94.2663 17.4262 94.1646 16.9758L93.3026 13.2421C93.2881 13.1743 93.2494 13.1114 93.1961 13.0678C93.1428 13.0242 93.075 13 93.0024 13C92.9298 13 92.862 13.0242 92.8087 13.0678C92.7554 13.1114 92.7167 13.1743 92.6973 13.2421L91.8353 16.9758C91.7288 17.431 91.5012 17.8426 91.1719 18.1719C90.8426 18.5012 90.4261 18.7337 89.9758 18.8353L86.2421 19.6973C86.1743 19.7119 86.1114 19.7506 86.0678 19.8039C86.0242 19.8571 86 19.9249 86 19.9976C86 20.0702 86.0242 20.138 86.0678 20.1913C86.1114 20.2446 86.1743 20.2833 86.2421 20.2978L89.9758 21.1598C90.431 21.2663 90.8426 21.4939 91.1719 21.8232C91.5012 22.1525 91.7336 22.569 91.8353 23.0194L92.6973 26.7579C92.7118 26.8257 92.7506 26.8886 92.8087 26.9322C92.862 26.9758 92.9298 27 93.0024 27C93.075 27 93.1428 26.9758 93.1961 26.9322C93.2494 26.8886 93.2881 26.8257 93.3026 26.7579L94.1598 23.0194L94.1549 23.0242Z" fill="#DD2222"/>
<path d="M357.658 78.7281C357.719 78.468 357.849 78.23 358.04 78.0419C358.228 77.8537 358.466 77.7236 358.726 77.6627L360.862 77.1702C360.9 77.1619 360.936 77.1397 360.961 77.1093C360.986 77.0789 361 77.0401 361 76.9986C361 76.9571 360.986 76.9184 360.961 76.8879C360.936 76.8575 360.9 76.8354 360.862 76.8271L358.726 76.3345C358.466 76.2736 358.231 76.1435 358.043 75.9554C357.855 75.7672 357.722 75.5292 357.664 75.2719L357.171 73.1384C357.163 73.0996 357.141 73.0636 357.111 73.0387C357.08 73.0138 357.041 73 357 73C356.958 73 356.92 73.0138 356.889 73.0387C356.859 73.0636 356.837 73.0996 356.826 73.1384L356.333 75.2719C356.272 75.532 356.142 75.7672 355.954 75.9554C355.766 76.1435 355.528 76.2764 355.271 76.3345L353.138 76.8271C353.1 76.8354 353.064 76.8575 353.039 76.8879C353.014 76.9184 353 76.9571 353 76.9986C353 77.0401 353.014 77.0789 353.039 77.1093C353.064 77.1397 353.1 77.1619 353.138 77.1702L355.271 77.6627C355.531 77.7236 355.766 77.8537 355.954 78.0419C356.142 78.23 356.275 78.468 356.333 78.7254L356.826 80.8616C356.834 80.9004 356.856 80.9364 356.889 80.9613C356.92 80.9862 356.958 81 357 81C357.041 81 357.08 80.9862 357.111 80.9613C357.141 80.9364 357.163 80.9004 357.171 80.8616L357.661 78.7254L357.658 78.7281Z" fill="#DD2222"/>
<path d="M407 115C407.552 115 408 115.448 408 116C408 116.552 407.552 117 407 117V115ZM257 50.3333C254.054 50.3333 251.667 47.9455 251.667 45C251.667 42.0545 254.054 39.6667 257 39.6667C259.946 39.6667 262.333 42.0545 262.333 45C262.333 47.9455 259.946 50.3333 257 50.3333ZM372 108.942L373 108.942L372 108.942ZM371 108.942L371 20.0583L373 20.0583L373 108.942L371 108.942ZM364.942 14L264.058 14L264.058 12L364.942 12L364.942 14ZM379.058 115L407 115V117L379.058 117L379.058 115ZM258 20.0583L258 45L256 45L256 20.0583L258 20.0583ZM264.058 14C260.712 14 258 16.7124 258 20.0583L256 20.0583C256 15.6078 259.608 12 264.058 12L264.058 14ZM371 20.0583C371 16.7124 368.288 14 364.942 14L364.942 12C369.392 12 373 15.6078 373 20.0583L371 20.0583ZM373 108.942C373 112.288 375.712 115 379.058 115L379.058 117C374.608 117 371 113.392 371 108.942L373 108.942Z" fill="#3B70D4"/>
<path d="M74 20H43.5476C39.6489 20 36.4883 23.1606 36.4883 27.0593V140.941C36.4883 144.839 33.3278 148 29.429 148H-46" stroke="#3B70D4" stroke-width="2" stroke-linecap="round" stroke-linejoin="round" stroke-dasharray="0.1 4"/>
<path d="M305.5 140H325.429C329.328 140 332.488 143.161 332.488 147.059V176.941C332.488 180.839 329.328 184 325.429 184H250H155.559C151.661 184 148.5 187.161 148.5 191.059V228.5" stroke="#3B70D4" stroke-width="2" stroke-linecap="round" stroke-linejoin="round" stroke-dasharray="0.1 4"/>
<circle cx="200.16" cy="100" r="56" stroke="#E0E9F8" stroke-width="4" stroke-linecap="round" stroke-dasharray="0.1 7"/>
<path d="M189.253 74.9503L210.807 63.6057C214.52 61.6455 218.843 61.3828 222.748 62.8803L256.42 75.639L256.048 120.143L223.3 127.536C222.554 127.812 221.77 127.995 220.963 128.076C220.651 128.107 220.335 128.123 220.017 128.123H216.811C216.809 131.776 215.021 135.189 212.037 137.236C209.053 139.283 205.262 139.697 201.917 138.341L200.769 137.875V141.964C200.767 145.69 198.48 149.023 195.033 150.321C191.587 151.619 187.707 150.608 185.305 147.787L162.273 121.622H146.238L146.958 83.8689L159.274 78.8892L171.591 73.9095C173.001 73.3346 174.507 73.0394 176.028 73.0399C178.58 73.0402 181.064 73.8655 183.119 75.3952L186.158 78.0182C186.859 76.7438 187.91 75.6627 189.253 74.9503Z" fill="#264887"/>
<path d="M228.718 113.44C231.854 116.576 226.105 123.893 224.238 126.32C224.238 126.32 224.238 122.96 222.731 119.04C221.223 115.12 199.038 88.24 199.038 88.24L207.438 85.44C213.225 93.4666 225.582 110.304 228.718 113.44Z" fill="#3B70D4"/>
<path d="M169.918 74.8C179.774 70.768 184.852 77.4979 185.598 80.4846C181.442 78.7564 179.115 78.0687 174.958 80.4846L146.398 92.16V84.3199C150.132 82.8266 160.062 78.832 169.918 74.8Z" fill="#3B70D4"/>
<path d="M217.518 69.1999C223.678 69.7599 257.279 84.8799 257.279 84.8799V75.9199L215.838 61.9199L186.718 75.9199L187.278 87.1199C187.278 87.1199 189.183 82.6054 193.998 80.4846C202.09 76.9204 213.656 68.8488 217.518 69.1999Z" fill="#3B70D4"/>
<path d="M217.127 81.6335L206.565 85.2869M200.769 137.875V141.964C200.767 145.69 198.48 149.023 195.033 150.321C191.587 151.619 187.707 150.608 185.305 147.787L162.273 121.622H146.238L146.958 83.8689L159.274 78.8892L171.591 73.9095C173.001 73.3346 174.507 73.0394 176.028 73.0399C178.58 73.0402 181.064 73.8655 183.119 75.3952L186.158 78.0182M200.769 137.875L201.917 138.341C205.262 139.697 209.053 139.283 212.037 137.236C215.021 135.189 216.809 131.776 216.811 128.123M200.769 137.875L192.318 128M216.811 128.123H220.017C220.335 128.123 220.651 128.107 220.963 128.076C221.77 127.995 222.554 127.812 223.3 127.536M216.811 128.123L208.558 118.48M206.565 85.2869L227.717 112.515C229.901 115.472 230.252 119.425 228.622 122.729C227.502 125 225.578 126.697 223.3 127.536M206.565 85.2869L194.874 89.3309C191.309 90.5593 187.431 88.794 185.859 85.227C184.793 82.8325 184.984 80.154 186.158 78.0182M223.3 127.536L256.048 120.143L256.42 75.639L222.748 62.8803C218.843 61.3828 214.52 61.6455 210.807 63.6057L189.253 74.9503C187.91 75.6627 186.859 76.7438 186.158 78.0182" stroke="#E0E9F8" stroke-width="4" stroke-linecap="round" stroke-linejoin="round" stroke-dasharray="30 1 1 7"/>
<path d="M139.582 72.0058H130.204C122.549 93.9908 122.482 106.236 127.257 127.995H139.582C143.187 128.14 146.234 125.359 146.4 121.771V83.7895V78.2222C146.234 74.6351 143.186 71.8562 139.582 72.0058Z" fill="#DD2222"/>
<path d="M130.204 72.0058C132.619 72.0058 139.582 72.0058 139.582 72.0058M130.204 72.0058H139.582M130.204 72.0058C130.157 72.1236 130.146 72.1524 130.204 72.0058ZM130.204 72.0058C122.549 93.9908 122.482 106.236 127.257 127.995M139.582 72.0058C143.186 71.8562 146.234 74.6351 146.4 78.2222M146.4 78.2222V121.771M146.4 78.2222V83.7895V121.771M146.4 121.771C146.234 125.359 143.187 128.14 139.582 127.995M139.582 127.995C139.582 127.995 130.61 127.995 127.257 127.995M139.582 127.995H127.257" stroke="#E0E9F8" stroke-width="4" stroke-linecap="round" stroke-linejoin="round"/>
<path d="M262.352 127.995H275.356C280.996 106.796 278.724 86.6095 272.174 72.0058H264.56H262.88H262.352C260.038 71.9001 257.977 73.2573 256.914 75.3289C256.473 76.1882 256.204 77.1705 256.16 78.2222V121.771C256.311 125.359 259.077 128.14 262.352 127.995Z" fill="#DD2222"/>
<path d="M262.352 127.995H275.356C280.996 106.796 278.724 86.6095 272.174 72.0058H264.56H262.88H262.352C260.038 71.9001 257.977 73.2573 256.914 75.3289C256.473 76.1882 256.204 77.1705 256.16 78.2222V121.771C256.311 125.359 259.077 128.14 262.352 127.995Z" stroke="#E0E9F8" stroke-width="4" stroke-linecap="round" stroke-linejoin="round"/>
<rect x="238.238" y="105.6" width="17.92" height="4.48" rx="2.24" fill="#E0E9F8"/>
<rect x="145.281" y="100.051" width="25.8903" height="4.48" rx="2.24" transform="rotate(-23.0368 145.281 100.051)" fill="#E0E9F8"/>
<path d="M87 210C87 210.552 87.4477 211 88 211C88.5523 211 89 210.552 89 210L87 210ZM88 141.333C90.9455 141.333 93.3333 138.946 93.3333 136C93.3333 133.054 90.9455 130.667 88 130.667C85.0545 130.667 82.6667 133.054 82.6667 136C82.6667 138.946 85.0545 141.333 88 141.333ZM89 210L89 158L87 158L87 210L89 210ZM89 158L89 136L87 136L87 158L89 158Z" fill="#3B70D4"/>
</g>
<defs>
<clipPath id="clip0_418_46434">
<rect width="400" height="200" fill="white"/>
</clipPath>
</defs>
</svg>
