<svg width="60" height="60" viewBox="0 0 60 60" fill="none" xmlns="http://www.w3.org/2000/svg">
<path d="M40 4.41096C34.0175 1.19596 26.6467 1.19637 20.6647 4.41205C18.8711 5.37615 17.2842 6.58535 15.9412 7.97931C15.3273 8.61647 14.7644 9.29224 14.256 10.0009C14.0206 10.3289 13.7969 10.6641 13.5853 11.0057C13.5711 11.0286 13.5569 11.0516 13.5428 11.0746M11 20V32" stroke="#25282D" stroke-width="2" stroke-linecap="round" stroke-linejoin="round"/>
<path d="M48.9694 32C49.0102 23.7699 49.0102 19.3669 48.9694 18.7909C48.8172 16.6454 48.1087 14.8381 47 13" stroke="#25282D" stroke-width="2" stroke-linecap="round" stroke-linejoin="round"/>
<path d="M42.001 32V20.0011C42.0017 16.4386 40.1226 13.1211 37.0053 11.0679C36.6838 10.8561 36.3491 10.6578 36.002 10.4741M18.0391 19C18.0649 18.7072 18.1033 18.5276 18.1541 18.24C18.7249 15.0089 20.8486 12.1416 23.9989 10.4741C27.7119 8.50882 32.2868 8.50861 36 10.4736M18 32C18 30.0749 18 28.4034 18 27V32Z" stroke="#25282D" stroke-width="2" stroke-linecap="round" stroke-linejoin="round"/>
<path fill-rule="evenodd" clip-rule="evenodd" d="M26 20.5791C26 18.6014 28.0537 17 30.0116 17C31.9887 17 34 19.0325 34 21.0294V35L44.4595 38.7059C46.8186 39.4728 47.3558 42.2898 46.7971 44.7353L44.512 57.1806C44.4249 57.6553 44.0111 58 43.5285 58H25.8346C25.4992 58 25.1862 57.8319 25.001 57.5524L15.7083 43.5294C14.6242 41.8556 15.1122 39 17.5 39C19.8878 39 21.2245 39.5694 26 47V20.5791Z" stroke="#25282D" stroke-width="2" stroke-linejoin="round"/>
</svg>
