<svg width="60" height="60" viewBox="0 0 60 60" fill="none" xmlns="http://www.w3.org/2000/svg">
<circle cx="30" cy="23" r="20" stroke="#25282D" stroke-width="2" stroke-linecap="round" stroke-linejoin="round"/>
<path d="M38.5714 41L42 57L30 50.0445L18 57L21.4286 41" stroke="#25282D" stroke-width="2" stroke-linecap="round" stroke-linejoin="round"/>
<path fill-rule="evenodd" clip-rule="evenodd" d="M31.2974 12.7817L34.3465 18.7919H39.5433C40.1288 18.7776 40.6631 19.124 40.8895 19.6646C41.1158 20.2052 40.9878 20.8294 40.567 21.2371L35.7978 25.9269L38.4389 32.0031C38.6779 32.5738 38.5259 33.2335 38.0614 33.6418C37.5969 34.0502 36.9237 34.1159 36.3891 33.8052L30 30.2084L23.6109 33.8052C23.0763 34.1159 22.4031 34.0502 21.9386 33.6418C21.4741 33.2335 21.3221 32.5738 21.5611 32.0031L24.2046 25.9269L19.433 21.2273C19.0122 20.8196 18.8842 20.1955 19.1105 19.6549C19.3369 19.1143 19.8712 18.7678 20.4567 18.7821H25.6535L28.7051 12.7817C28.959 12.3009 29.4578 12 30.0012 12C30.5446 12 31.0435 12.3009 31.2974 12.7817Z" stroke="#25282D" stroke-width="2" stroke-linecap="round" stroke-linejoin="round"/>
</svg>
