<svg width="400" height="200" viewBox="0 0 400 200" fill="none" xmlns="http://www.w3.org/2000/svg">
<g clip-path="url(#clip0_418_46351)">
<rect width="400" height="200" fill="#1B283C"/>
<path d="M70 93H64V99H70V93Z" stroke="#74D1EA" stroke-width="1.89445" stroke-linecap="round" stroke-linejoin="round"/>
<path d="M316 38C318.206 38 320 36.2114 320 34C320 31.7886 318.211 30 316 30C313.789 30 312 31.7886 312 34C312 36.2114 313.789 38 316 38Z" stroke="#74D1EA" stroke-width="1.66576" stroke-linecap="round" stroke-linejoin="round"/>
<path d="M87.1549 43.0242C87.2615 42.569 87.4891 42.1525 87.8232 41.8232C88.1525 41.4939 88.569 41.2663 89.0242 41.1598L92.7627 40.2978C92.8305 40.2833 92.8934 40.2446 92.937 40.1913C92.9806 40.138 93.0048 40.0702 93.0048 39.9976C93.0048 39.9249 92.9806 39.8571 92.937 39.8039C92.8934 39.7506 92.8305 39.7119 92.7627 39.6973L89.0242 38.8353C88.569 38.7288 88.1574 38.5012 87.8281 38.1719C87.4988 37.8426 87.2663 37.4262 87.1646 36.9758L86.3026 33.2421C86.2881 33.1743 86.2494 33.1114 86.1961 33.0678C86.1428 33.0242 86.075 33 86.0024 33C85.9298 33 85.862 33.0242 85.8087 33.0678C85.7554 33.1114 85.7167 33.1743 85.6973 33.2421L84.8353 36.9758C84.7288 37.431 84.5012 37.8426 84.1719 38.1719C83.8426 38.5012 83.4261 38.7337 82.9758 38.8353L79.2421 39.6973C79.1743 39.7119 79.1114 39.7506 79.0678 39.8039C79.0242 39.8571 79 39.9249 79 39.9976C79 40.0702 79.0242 40.138 79.0678 40.1913C79.1114 40.2446 79.1743 40.2833 79.2421 40.2978L82.9758 41.1598C83.431 41.2663 83.8426 41.4939 84.1719 41.8232C84.5012 42.1525 84.7336 42.569 84.8353 43.0194L85.6973 46.7579C85.7118 46.8257 85.7506 46.8886 85.8087 46.9322C85.862 46.9758 85.9298 47 86.0024 47C86.075 47 86.1428 46.9758 86.1961 46.9322C86.2494 46.8886 86.2881 46.8257 86.3026 46.7579L87.1598 43.0194L87.1549 43.0242Z" fill="#DD2222"/>
<path d="M357.658 78.7281C357.719 78.468 357.849 78.23 358.04 78.0419C358.228 77.8537 358.466 77.7236 358.726 77.6627L360.862 77.1702C360.9 77.1619 360.936 77.1397 360.961 77.1093C360.986 77.0789 361 77.0401 361 76.9986C361 76.9571 360.986 76.9184 360.961 76.8879C360.936 76.8575 360.9 76.8354 360.862 76.8271L358.726 76.3345C358.466 76.2736 358.231 76.1435 358.043 75.9554C357.855 75.7672 357.722 75.5292 357.664 75.2719L357.171 73.1384C357.163 73.0996 357.141 73.0636 357.111 73.0387C357.08 73.0138 357.041 73 357 73C356.958 73 356.92 73.0138 356.889 73.0387C356.859 73.0636 356.837 73.0996 356.826 73.1384L356.333 75.2719C356.272 75.532 356.142 75.7672 355.954 75.9554C355.766 76.1435 355.528 76.2764 355.271 76.3345L353.138 76.8271C353.1 76.8354 353.064 76.8575 353.039 76.8879C353.014 76.9184 353 76.9571 353 76.9986C353 77.0401 353.014 77.0789 353.039 77.1093C353.064 77.1397 353.1 77.1619 353.138 77.1702L355.271 77.6627C355.531 77.7236 355.766 77.8537 355.954 78.0419C356.142 78.23 356.275 78.468 356.333 78.7254L356.826 80.8616C356.834 80.9004 356.856 80.9364 356.889 80.9613C356.92 80.9862 356.958 81 357 81C357.041 81 357.08 80.9862 357.111 80.9613C357.141 80.9364 357.163 80.9004 357.171 80.8616L357.661 78.7254L357.658 78.7281Z" fill="#DD2222"/>
<path d="M104 38.535C103.448 38.535 103 38.9827 103 39.535C103 40.0873 103.448 40.535 104 40.535V38.535ZM140.667 -26C140.667 -23.0545 143.054 -20.6667 146 -20.6667C148.946 -20.6667 151.333 -23.0545 151.333 -26C151.333 -28.9455 148.946 -31.3333 146 -31.3333C143.054 -31.3333 140.667 -28.9455 140.667 -26ZM104 40.535H138.942V38.535H104V40.535ZM147 32.4767V-26H145V32.4767H147ZM138.942 40.535C143.392 40.535 147 36.9272 147 32.4767H145C145 35.8226 142.288 38.535 138.942 38.535V40.535Z" fill="#E0E9F8"/>
<path d="M-10 159C-10.5523 159 -11 159.448 -11 160C-11 160.552 -10.5523 161 -10 161V159ZM58.6667 160C58.6667 162.946 61.0545 165.333 64 165.333C66.9455 165.333 69.3333 162.946 69.3333 160C69.3333 157.054 66.9455 154.667 64 154.667C61.0545 154.667 58.6667 157.054 58.6667 160ZM-10 161H42V159H-10V161ZM42 161H64V159H42V161Z" fill="#E0E9F8"/>
<path d="M373 216C373 216.552 372.552 217 372 217C371.448 217 371 216.552 371 216L373 216ZM301.5 119.333C298.554 119.333 296.167 116.946 296.167 114C296.167 111.054 298.554 108.667 301.5 108.667C304.446 108.667 306.833 111.054 306.833 114C306.833 116.946 304.446 119.333 301.5 119.333ZM372 121.058L371 121.058L372 121.058ZM371 216L371 121.058L373 121.058L373 216L371 216ZM364.942 115L301.5 115L301.5 113L364.942 113L364.942 115ZM371 121.058C371 117.712 368.288 115 364.942 115L364.942 113C369.392 113 373 116.608 373 121.058L371 121.058Z" fill="#E0E9F8"/>
<path d="M66.8687 39.5352H43.4719C39.5732 39.5352 36.4126 42.6957 36.4126 46.5944V100.941C36.4126 104.84 33.252 108 29.3533 108H-16" stroke="#E0E9F8" stroke-width="2" stroke-linecap="round" stroke-linejoin="round" stroke-dasharray="0.1 4"/>
<path d="M186.799 51.3477C187.621 50.791 188.576 50.4583 189.569 50.3831C190.563 50.308 191.558 50.4931 192.456 50.9197L214.198 61.0998L232.917 40.2101L226.321 34.3481C225.94 34.0373 225.661 33.6213 225.52 33.1531C225.379 32.6849 225.382 32.1858 225.529 31.7193C225.676 31.2529 225.96 30.8403 226.344 30.5341C226.729 30.2279 227.197 30.0419 227.689 30H248.976C249.635 30.0161 250.261 30.2904 250.715 30.7625C251.17 31.2346 251.417 31.866 251.401 32.518L252.724 52.7016C252.745 53.1888 252.62 53.6714 252.364 54.0879C252.107 54.5044 251.732 54.8361 251.284 55.0408C250.837 55.2455 250.338 55.314 249.852 55.2376C249.365 55.1612 248.912 54.9434 248.551 54.6117L242.701 49.2444L219.548 71.8994C219 72.459 218.341 72.9 217.613 73.1947C216.884 73.4894 216.102 73.6313 215.315 73.6113C214.514 73.5925 213.726 73.4082 213.001 73.0701L190.496 62.5286L146.588 94.1697C146.222 94.3818 145.789 94.4494 145.375 94.3588C144.96 94.2683 144.596 94.0263 144.354 93.6814C144.113 93.3364 144.012 92.9139 144.071 92.4983C144.131 92.0828 144.347 91.7049 144.676 91.4402L186.799 51.3477Z" fill="#74D1EA" stroke="white" stroke-width="4" stroke-linecap="round" stroke-linejoin="round" stroke-dasharray="100 7 1 5"/>
<path d="M197.837 111.506H190.058C188.984 111.506 188.113 112.861 188.113 114.532V146.25C188.113 147.921 188.984 149.276 190.058 149.276H197.837C198.911 149.276 199.781 147.921 199.781 146.25V114.532C199.781 112.861 198.911 111.506 197.837 111.506Z" fill="#264887"/>
<path d="M199.781 120.583V114.532C199.781 113.729 199.576 112.96 199.212 112.393C198.847 111.825 198.352 111.506 197.837 111.506H190.058C189.542 111.506 189.048 111.825 188.683 112.393C188.318 112.96 188.113 113.729 188.113 114.532V120.583C188.115 119.781 188.32 119.013 188.684 118.446C189.049 117.879 189.543 117.559 190.058 117.557H197.837C198.352 117.559 198.846 117.879 199.21 118.446C199.575 119.013 199.78 119.781 199.781 120.583Z" fill="#74D1EA"/>
<path d="M197.837 111.506H190.058C188.984 111.506 188.113 112.861 188.113 114.532V146.25C188.113 147.921 188.984 149.276 190.058 149.276H197.837C198.911 149.276 199.781 147.921 199.781 146.25V114.532C199.781 112.861 198.911 111.506 197.837 111.506Z" stroke="white" stroke-width="4" stroke-linecap="round" stroke-linejoin="round"/>
<path d="M218.512 92.6377H210.734C209.66 92.6377 208.789 93.9923 208.789 95.6632V146.25C208.789 147.921 209.66 149.276 210.734 149.276H218.512C219.586 149.276 220.457 147.921 220.457 146.25V95.6632C220.457 93.9923 219.586 92.6377 218.512 92.6377Z" fill="#264887"/>
<path d="M219.656 101.714V95.6632C219.656 94.8608 219.451 94.0912 219.087 93.5239C218.722 92.9565 218.227 92.6377 217.712 92.6377H209.933C209.417 92.6377 208.923 92.9565 208.558 93.5239C208.193 94.0912 207.988 94.8608 207.988 95.6632V101.714C207.99 100.913 208.196 100.145 208.56 99.578C208.924 99.0112 209.418 98.6915 209.933 98.6888H217.712C218.227 98.6908 218.721 99.0103 219.085 99.5772C219.45 100.144 219.655 100.913 219.656 101.714Z" fill="#74D1EA"/>
<path d="M217.712 92.6377H209.933C208.859 92.6377 207.988 93.9923 207.988 95.6632V146.25C207.988 147.921 208.859 149.276 209.933 149.276H217.712C218.786 149.276 219.656 147.921 219.656 146.25V95.6632C219.656 93.9923 218.786 92.6377 217.712 92.6377Z" stroke="white" stroke-width="4" stroke-linecap="round" stroke-linejoin="round"/>
<path d="M237.016 100.187H229.238C228.164 100.187 227.293 101.541 227.293 103.212V146.251C227.293 147.922 228.164 149.276 229.238 149.276H237.016C238.09 149.276 238.961 147.922 238.961 146.251V103.212C238.961 101.541 238.09 100.187 237.016 100.187Z" fill="#264887"/>
<path d="M239.375 109.263V103.212C239.375 102.41 239.17 101.64 238.805 101.073C238.441 100.505 237.946 100.187 237.43 100.187H229.652C229.136 100.187 228.641 100.505 228.277 101.073C227.912 101.64 227.707 102.41 227.707 103.212V109.263C227.708 108.461 227.914 107.693 228.278 107.126C228.642 106.559 229.136 106.24 229.652 106.238H237.43C237.946 106.24 238.44 106.559 238.804 107.126C239.168 107.693 239.374 108.461 239.375 109.263Z" fill="#74D1EA"/>
<path d="M237.43 100.187H229.652C228.578 100.187 227.707 101.541 227.707 103.212V146.251C227.707 147.922 228.578 149.276 229.652 149.276H237.43C238.504 149.276 239.375 147.922 239.375 146.251V103.212C239.375 101.541 238.504 100.187 237.43 100.187Z" stroke="white" stroke-width="4" stroke-linecap="round" stroke-linejoin="round"/>
<path d="M257.536 80.5625H249.757C248.683 80.5625 247.812 81.9171 247.812 83.588V146.248C247.812 147.919 248.683 149.274 249.757 149.274H257.536C258.61 149.274 259.48 147.919 259.48 146.248V83.588C259.48 81.9171 258.61 80.5625 257.536 80.5625Z" fill="#264887"/>
<path d="M259.094 89.6391V83.588C259.094 82.7856 258.889 82.0161 258.524 81.4487C258.159 80.8813 257.665 80.5625 257.149 80.5625H249.37C248.855 80.5625 248.36 80.8813 247.995 81.4487C247.631 82.0161 247.426 82.7856 247.426 83.588V89.6391C247.428 88.8375 247.633 88.0696 247.997 87.5028C248.362 86.936 248.855 86.6163 249.37 86.6136H257.149C257.664 86.6157 258.158 86.9351 258.523 87.502C258.887 88.069 259.092 88.8373 259.094 89.6391V89.6391Z" fill="#74D1EA"/>
<path d="M257.149 80.5625H249.37C248.296 80.5625 247.426 81.9171 247.426 83.588V146.248C247.426 147.919 248.296 149.274 249.37 149.274H257.149C258.223 149.274 259.094 147.919 259.094 146.248V83.588C259.094 81.9171 258.223 80.5625 257.149 80.5625Z" stroke="white" stroke-width="4" stroke-linecap="round" stroke-linejoin="round"/>
<path d="M155.011 117.541H137.405C136.077 117.541 135 118.621 135 119.954V164.926C135 166.259 136.077 167.339 137.405 167.339H155.011C156.34 167.339 157.417 166.259 157.417 164.926V119.954C157.417 118.621 156.34 117.541 155.011 117.541Z" fill="white" fill-opacity="0.7"/>
<path d="M260.907 136.532C260.067 136.53 259.235 136.694 258.458 137.015L229.592 148.72C228.445 149.183 227.221 149.421 225.984 149.422H223.064C224.741 149.389 226.338 148.698 227.513 147.496C228.688 146.295 229.345 144.679 229.345 142.996C229.345 141.314 228.688 139.698 227.513 138.496C226.338 137.295 224.741 136.604 223.064 136.571H210.683C200.368 136.571 202.781 125.328 184.636 125.328H167.023V160.73C172.018 160.337 177.041 160.938 181.803 162.499L188.899 165.012C198.669 168.47 209.212 169.099 219.321 166.826C221.13 166.689 261.604 149.617 263.36 148.886C264.73 148.318 265.861 147.29 266.56 145.979C267.259 144.667 267.483 143.153 267.194 141.695C266.904 140.236 266.119 138.924 264.973 137.981C263.826 137.038 262.389 136.524 260.907 136.525V136.532Z" fill="#264887"/>
<path d="M181.933 132.161C200.08 132.161 197.667 143.405 207.981 143.405H220.36C221.804 143.405 223.206 143.895 224.338 144.795C225.47 145.694 226.266 146.951 226.597 148.361C227.745 147.599 228.617 146.486 229.084 145.188C229.552 143.889 229.59 142.475 229.194 141.153C228.797 139.831 227.987 138.672 226.883 137.848C225.779 137.024 224.44 136.578 223.064 136.577H210.683C200.368 136.577 202.781 125.334 184.634 125.334H167.023V132.161H181.933Z" fill="#74D1EA"/>
<path d="M267.315 142.954C267.315 141.898 267.055 140.858 266.558 139.927C266.061 138.996 265.343 138.201 264.468 137.615C263.592 137.028 262.586 136.667 261.538 136.564C260.49 136.461 259.433 136.618 258.461 137.023L229.595 148.727C228.448 149.191 227.223 149.429 225.987 149.429H195.242C195.242 151.013 195.856 152.536 196.955 153.674C198.053 154.812 199.55 155.477 201.128 155.527C229.094 156.44 230.817 155.216 255.836 143.98C256.675 143.63 257.579 143.464 258.488 143.493C259.396 143.522 260.287 143.746 261.103 144.149C261.918 144.552 262.637 145.125 263.213 145.831C263.79 146.536 264.209 147.356 264.443 148.237H264.575C265.422 147.642 266.113 146.852 266.59 145.932C267.067 145.012 267.315 143.991 267.315 142.954V142.954Z" fill="#74D1EA"/>
<path d="M223.064 149.428H195.844" stroke="#CAEDF7" stroke-width="4" stroke-miterlimit="10" stroke-linecap="round" stroke-dasharray="100 7 1 5"/>
<path d="M260.907 136.532C260.067 136.53 259.235 136.694 258.458 137.015L229.592 148.72C228.445 149.183 227.221 149.421 225.984 149.422H223.064C224.741 149.389 226.338 148.698 227.513 147.496C228.688 146.295 229.346 144.679 229.346 142.996C229.346 141.314 228.688 139.698 227.513 138.496C226.338 137.295 224.741 136.604 223.064 136.571H210.683C200.368 136.571 202.781 125.328 184.636 125.328H167.023V160.73C172.018 160.337 177.041 160.938 181.803 162.499L188.899 165.012C198.669 168.47 209.212 169.099 219.321 166.826C221.13 166.689 261.604 149.617 263.36 148.886C264.73 148.318 265.861 147.29 266.56 145.979C267.259 144.667 267.483 143.153 267.194 141.695C266.904 140.236 266.119 138.924 264.973 137.981C263.826 137.038 262.389 136.524 260.907 136.525V136.532Z" stroke="white" stroke-width="4" stroke-linecap="round" stroke-linejoin="round" stroke-dasharray="100 7 1 5"/>
<path d="M155.011 117.541H137.405C136.077 117.541 135 118.621 135 119.954V164.926C135 166.259 136.077 167.339 137.405 167.339H155.011C156.34 167.339 157.417 166.259 157.417 164.926V119.954C157.417 118.621 156.34 117.541 155.011 117.541Z" fill="#74D1EA" stroke="white" stroke-width="4" stroke-linecap="round" stroke-linejoin="round"/>
<path d="M157.418 164.123H164.62C165.258 164.123 165.87 163.868 166.321 163.416C166.772 162.963 167.025 162.35 167.025 161.71V123.165C167.025 122.525 166.772 121.911 166.321 121.458C165.87 121.006 165.258 120.751 164.62 120.751H157.418V164.123Z" fill="#74D1EA" stroke="white" stroke-width="4" stroke-linecap="round" stroke-linejoin="round"/>
</g>
<defs>
<clipPath id="clip0_418_46351">
<rect width="400" height="200" fill="white"/>
</clipPath>
</defs>
</svg>
