<svg width="60" height="60" viewBox="0 0 60 60" fill="none" xmlns="http://www.w3.org/2000/svg">
<path fill-rule="evenodd" clip-rule="evenodd" d="M14 26C14 25.4477 14.4477 25 15 25H28C28.5523 25 29 25.4477 29 26C29 26.5523 28.5523 27 28 27H15C14.4477 27 14 26.5523 14 26Z" fill="#050606"/>
<path fill-rule="evenodd" clip-rule="evenodd" d="M14 35C14 34.4477 14.4477 34 15 34H23C23.5523 34 24 34.4477 24 35C24 35.5523 23.5523 36 23 36H15C14.4477 36 14 35.5523 14 35Z" fill="#050606"/>
<path fill-rule="evenodd" clip-rule="evenodd" d="M14 44C14 43.4477 14.4477 43 15 43H23C23.5523 43 24 43.4477 24 44C24 44.5523 23.5523 45 23 45H15C14.4477 45 14 44.5523 14 44Z" fill="#050606"/>
<path fill-rule="evenodd" clip-rule="evenodd" d="M26 4C21.6738 4 18 7.67377 18 12C18 12.5523 17.5523 13 17 13H8C7.19672 13 6.73712 13.2135 6.47533 13.4753C6.21354 13.7371 6 14.1967 6 15V53C6 53.8033 6.21354 54.2629 6.47533 54.5247C6.73712 54.7865 7.19672 55 8 55H26C26.5523 55 27 55.4477 27 56C27 56.5523 26.5523 57 26 57H8C6.85187 57 5.81148 56.6892 5.06112 55.9389C4.31076 55.1885 4 54.1481 4 53V15C4 13.8519 4.31076 12.8115 5.06112 12.0611C5.81148 11.3108 6.85187 11 8 11H16.0519C16.5703 6.01981 20.9061 2 26 2C31.091 2 35.4493 6.01728 35.9702 11H43.4667C45.9704 11 48 13.0296 48 15.5333V21C48 21.5523 47.5523 22 47 22C46.4477 22 46 21.5523 46 21V15.5333C46 14.1342 44.8658 13 43.4667 13H35.0223C34.4701 13 34.0223 12.5523 34.0223 12C34.0223 7.67697 30.3294 4 26 4Z" fill="#050606"/>
<path fill-rule="evenodd" clip-rule="evenodd" d="M44 29C36.8203 29 31 34.8203 31 42C31 49.1797 36.8203 55 44 55C51.1797 55 57 49.1797 57 42C57 34.8203 51.1797 29 44 29ZM29 42C29 33.7157 35.7157 27 44 27C52.2843 27 59 33.7157 59 42C59 50.2843 52.2843 57 44 57C35.7157 57 29 50.2843 29 42Z" fill="#050606"/>
<path fill-rule="evenodd" clip-rule="evenodd" d="M50.5922 37.1942C51.0372 37.5213 51.1329 38.1472 50.8058 38.5922L43.9833 47.8752C43.5055 48.5236 42.7706 48.9348 41.9651 48.9929C41.1595 49.0511 40.3731 48.7494 39.8086 48.174L36.2858 44.5797C35.8992 44.1852 35.9056 43.5521 36.3 43.1655C36.6945 42.7789 37.3276 42.7853 37.7142 43.1797L41.2362 46.7733C41.3943 46.9344 41.608 47.0135 41.8212 46.9981C42.0344 46.9827 42.2369 46.8735 42.3729 46.6892V46.6892L49.1942 37.4078C49.5213 36.9628 50.1472 36.8671 50.5922 37.1942Z" fill="#050606"/>
<path d="M28 11C28 12.1046 27.1046 13 26 13C24.8954 13 24 12.1046 24 11C24 9.89543 24.8954 9 26 9C27.1046 9 28 9.89543 28 11Z" fill="#050606"/>
</svg>
