<svg width="60" height="60" fill="none" xmlns="http://www.w3.org/2000/svg"><mask id="a" style="mask-type:alpha" maskUnits="userSpaceOnUse" x="0" y="0" width="60" height="60"><circle cx="30" cy="30" r="30" fill="#C4C4C4"/></mask><g mask="url(#a)"><path d="M4.762 0v36.818h13.429L30 16.364h30V0H4.762Z" fill="#DB4437"/><path d="M18.515 36.699 4.936 13.41l-.197.341 13.48 23.114.296-.167Z" fill="#3E2723" fill-opacity=".15"/><path d="M0 60h28.558l13.255-13.255v-9.927H18.19L0 5.618V60Z" fill="url(#b)"/><path d="m41.536 37.271-.282-.163L28.166 60h.392l12.989-22.718-.01-.01Z" fill="#263238" fill-opacity=".15"/><path d="m30 16.363 11.813 20.455L28.557 60H60V16.364H30Z" fill="url(#c)"/><path d="m30 16.363 11.813 20.455L28.557 60H60V16.364H30Z" fill="#FFCD40"/><path d="M4.762 0v36.818h13.429L30 16.364h30V0H4.762Z" fill="url(#d)"/><path d="M30 16.363v7.143l26.727-7.143H30Z" fill="url(#e)"/><path d="M0 60h28.558l13.255-23.182H18.19L0 5.618V60Z" fill="#0F9D58"/><path d="M4.762 13.79 24.28 33.303l-6.088 3.515L4.762 13.79Z" fill="url(#f)"/><path d="m28.578 59.962 7.146-26.659 6.089 3.515-13.235 23.144Z" fill="url(#g)"/><path d="M30 43.636c7.531 0 13.636-6.105 13.636-13.636 0-7.531-6.105-13.637-13.636-13.637-7.531 0-13.636 6.106-13.636 13.637 0 7.531 6.105 13.636 13.636 13.636Z" fill="#F1F1F1"/><path d="M30 40.909c6.025 0 10.91-4.884 10.91-10.91 0-6.024-4.885-10.908-10.91-10.908S19.09 23.975 19.09 30 23.976 40.909 30 40.909Z" fill="#4285F4"/></g><defs><radialGradient id="e" cx="0" cy="0" r="1" gradientUnits="userSpaceOnUse" gradientTransform="translate(28.696 16.346) scale(28.663)"><stop stop-color="#3E2723" stop-opacity=".2"/><stop offset="1" stop-color="#3E2723" stop-opacity="0"/></radialGradient><radialGradient id="f" cx="0" cy="0" r="1" gradientUnits="userSpaceOnUse" gradientTransform="translate(4.73 13.813) scale(26.6059)"><stop stop-color="#3E2723" stop-opacity=".2"/><stop offset="1" stop-color="#3E2723" stop-opacity="0"/></radialGradient><radialGradient id="g" cx="0" cy="0" r="1" gradientUnits="userSpaceOnUse" gradientTransform="translate(29.947 30.047) scale(29.9557)"><stop stop-color="#263238" stop-opacity=".2"/><stop offset="1" stop-color="#263238" stop-opacity="0"/></radialGradient><linearGradient id="b" x1="35.07" y1="53.35" x2="15.183" y2="41.703" gradientUnits="userSpaceOnUse"><stop stop-color="#055524" stop-opacity=".4"/><stop offset=".33" stop-color="#055524" stop-opacity="0"/></linearGradient><linearGradient id="c" x1="38.815" y1="14.251" x2="43.823" y2="36.181" gradientUnits="userSpaceOnUse"><stop stop-color="#EA6100" stop-opacity=".3"/><stop offset=".66" stop-color="#EA6100" stop-opacity="0"/></linearGradient><linearGradient id="d" x1="7.274" y1="22.848" x2="25.172" y2="12.393" gradientUnits="userSpaceOnUse"><stop stop-color="#A52714" stop-opacity=".6"/><stop offset=".66" stop-color="#A52714" stop-opacity="0"/></linearGradient></defs></svg>