<svg width="60" height="60" viewBox="0 0 60 60" fill="none" xmlns="http://www.w3.org/2000/svg">
<path d="M55 4V3V4ZM1 8L2 8L1 8ZM5 4L5 5L5 4ZM1 46H0H1ZM46 22.5C46 23.0523 46.4477 23.5 47 23.5C47.5523 23.5 48 23.0523 48 22.5H46ZM48 19C48 18.4477 47.5523 18 47 18C46.4477 18 46 18.4477 46 19H48ZM42 14C42 14.5523 42.4477 15 43 15C43.5523 15 44 14.5523 44 14H42ZM50 14C50 14.5523 50.4477 15 51 15C51.5523 15 52 14.5523 52 14H50ZM14 56C13.4477 56 13 56.4477 13 57C13 57.5523 13.4477 58 14 58V56ZM46 58C46.5523 58 47 57.5523 47 57C47 56.4477 46.5523 56 46 56V58ZM31 50.6897C31 50.1374 30.5523 49.6897 30 49.6897C29.4477 49.6897 29 50.1374 29 50.6897H31ZM29 56.6897C29 57.2419 29.4477 57.6897 30 57.6897C30.5523 57.6897 31 57.2419 31 56.6897H29ZM1 41C0.447715 41 0 41.4477 0 42C0 42.5523 0.447715 43 1 43V41ZM59 43C59.5523 43 60 42.5523 60 42C60 41.4477 59.5523 41 59 41V43ZM0.254874 35.3331C-0.113458 35.7446 -0.0784452 36.3768 0.333077 36.7451C0.744599 37.1135 1.37679 37.0784 1.74513 36.6669L0.254874 35.3331ZM15.3208 20L16.0659 19.3331C15.8762 19.1211 15.6052 19 15.3208 19C15.0363 19 14.7653 19.1211 14.5756 19.3331L15.3208 20ZM25.283 31.1304L24.5379 31.7974C24.7309 32.013 25.0078 32.1344 25.2972 32.1303C25.5865 32.1262 25.8599 31.997 26.0467 31.776L25.283 31.1304ZM33.7645 22.6456C34.1211 22.2238 34.0682 21.5928 33.6464 21.2363C33.2246 20.8798 32.5936 20.9327 32.2371 21.3544L33.7645 22.6456ZM55 49H5V51H55V49ZM2 46V8H0V46H2ZM5 5L55 5V3L5 3L5 5ZM58 8V46H60V8H58ZM55 5C56.6569 5 58 6.34315 58 8H60C60 5.23858 57.7614 3 55 3V5ZM2 8C2 6.34315 3.34315 5 5 5L5 3C2.23858 3 0 5.23858 0 8L2 8ZM5 49C3.34314 49 2 47.6569 2 46H0C0 48.7614 2.23857 51 5 51V49ZM55 51C57.7614 51 60 48.7614 60 46H58C58 47.6569 56.6569 49 55 49V51ZM41 27H53V25H41V27ZM56 24V16H54V24H56ZM53 13H41V15H53V13ZM38 16V24H40V16H38ZM41 13C39.3431 13 38 14.3431 38 16H40C40 15.4477 40.4477 15 41 15V13ZM56 16C56 14.3431 54.6569 13 53 13V15C53.5523 15 54 15.4477 54 16H56ZM53 27C54.6569 27 56 25.6569 56 24H54C54 24.5523 53.5523 25 53 25V27ZM41 25C40.4477 25 40 24.5523 40 24H38C38 25.6569 39.3431 27 41 27V25ZM48 22.5V19H46V22.5H48ZM44 14V12.5023H42V14H44ZM44 12.5023C44 10.452 45.4507 9 47 9V7C44.1307 7 42 9.57597 42 12.5023H44ZM47 9C48.5482 9 50 10.4523 50 12.5023H52C52 9.57574 49.8678 7 47 7V9ZM50 12.5023V14H52V12.5023H50ZM47 19V21C48.1043 21 49 20.1043 49 19H47ZM47 19H45C45 20.1043 45.8957 21 47 21V19ZM47 19V17C45.8957 17 45 17.8957 45 19H47ZM47 19H49C49 17.8957 48.1043 17 47 17V19ZM14 58H46V56H14V58ZM29 50.6897V56.6897H31V50.6897H29ZM1 43H59V41H1V43ZM1.74513 36.6669L16.0659 20.6669L14.5756 19.3331L0.254874 35.3331L1.74513 36.6669ZM14.5756 20.6669L24.5379 31.7974L26.0281 30.4635L16.0659 19.3331L14.5756 20.6669ZM26.0467 31.776L33.7645 22.6456L32.2371 21.3544L24.5193 30.4849L26.0467 31.776Z" fill="#25282D"/>
</svg>
