<svg width="60" height="60" viewBox="0 0 60 60" fill="none" xmlns="http://www.w3.org/2000/svg">
<path d="M28 56H12C10.8954 56 10 55.1046 10 54V4C10 2.89543 10.8954 2 12 2H36.6485C37.1925 2 37.7131 2.22163 38.0902 2.61378L49.4417 14.4193C49.7999 14.7919 50 15.2887 50 15.8056V29" stroke="#25282D" stroke-width="2" stroke-linecap="round" stroke-linejoin="round"/>
<path d="M38 43V39.4C38 36.4174 40.688 34 44 34C47.314 34 50 36.4174 50 39.4V43" stroke="#25282D" stroke-width="2" stroke-linecap="round" stroke-linejoin="round"/>
<path fill-rule="evenodd" clip-rule="evenodd" d="M34 56C34 57.1046 34.8954 58 36 58H52C53.1046 58 54 57.1046 54 56V45C54 43.8954 53.1046 43 52 43H36C34.8954 43 34 43.8954 34 45V56Z" stroke="#25282D" stroke-width="2" stroke-linejoin="round"/>
<path d="M46 49C46 50.104 45.104 51 44 51C42.896 51 42 50.104 42 49C42 47.896 42.896 47 44 47C45.104 47 46 47.896 46 49Z" fill="#25282D"/>
<path d="M44 54V51" stroke="#25282D" stroke-width="2" stroke-linecap="round" stroke-linejoin="round"/>
<path d="M29 19H33.0002" stroke="#25282D" stroke-width="2" stroke-linecap="round" stroke-linejoin="round"/>
<path d="M29 28H37" stroke="#25282D" stroke-width="2" stroke-linecap="round" stroke-linejoin="round"/>
<path d="M29 37H31" stroke="#25282D" stroke-width="2" stroke-linecap="round" stroke-linejoin="round"/>
<path d="M24 25L19.9615 30L18 28" stroke="#25282D" stroke-width="2" stroke-linecap="round" stroke-linejoin="round"/>
<path d="M24 16L19.9615 21L18 19" stroke="#25282D" stroke-width="2" stroke-linecap="round" stroke-linejoin="round"/>
<path d="M24 34L19.9615 39L18 37" stroke="#25282D" stroke-width="2" stroke-linecap="round" stroke-linejoin="round"/>
<path d="M37 2.40582V13.0011C37 14.1056 37.8954 15.0011 39 15.0011H49.2169" stroke="#25282D" stroke-width="2" stroke-linecap="round" stroke-linejoin="round"/>
</svg>
