<svg width="60" height="60" fill="none" xmlns="http://www.w3.org/2000/svg"><path d="M54.15 44.653c-.8.418-1.624.787-2.47 1.104a23.875 23.875 0 0 1-8.413 1.514c-11.09 0-20.75-7.628-20.75-17.417a7.377 7.377 0 0 1 3.851-6.4c-10.03.422-12.608 10.874-12.608 16.997 0 17.314 15.957 19.07 19.395 19.07 1.854 0 4.65-.54 6.328-1.07l.306-.103a30.076 30.076 0 0 0 15.608-12.373.937.937 0 0 0-1.247-1.322Z" fill="url(#a)"/><path opacity=".35" d="M54.15 44.653c-.8.418-1.624.787-2.47 1.104a23.875 23.875 0 0 1-8.413 1.514c-11.09 0-20.75-7.628-20.75-17.417a7.377 7.377 0 0 1 3.851-6.4c-10.03.422-12.608 10.874-12.608 16.997 0 17.314 15.957 19.07 19.395 19.07 1.854 0 4.65-.54 6.328-1.07l.306-.103a30.076 30.076 0 0 0 15.608-12.373.937.937 0 0 0-1.247-1.322Z" fill="url(#b)"/><path d="M24.779 56.576a18.56 18.56 0 0 1-5.33-5 18.917 18.917 0 0 1 6.92-28.122c.732-.345 1.981-.968 3.643-.938a7.582 7.582 0 0 1 6.02 3.047 7.471 7.471 0 0 1 1.49 4.373c0-.05 5.733-18.655-18.747-18.655C8.486 11.281.026 21.044.026 29.61a30.5 30.5 0 0 0 2.838 13.123 29.997 29.997 0 0 0 36.647 15.728A17.704 17.704 0 0 1 24.8 56.586l-.021-.01Z" fill="url(#c)"/><path opacity=".41" d="M24.779 56.576a18.56 18.56 0 0 1-5.33-5 18.917 18.917 0 0 1 6.92-28.122c.732-.345 1.981-.968 3.643-.938a7.582 7.582 0 0 1 6.02 3.047 7.471 7.471 0 0 1 1.49 4.373c0-.05 5.733-18.655-18.747-18.655C8.486 11.281.026 21.044.026 29.61a30.5 30.5 0 0 0 2.838 13.123 29.997 29.997 0 0 0 36.647 15.728A17.704 17.704 0 0 1 24.8 56.586l-.021-.01Z" fill="url(#d)"/><path d="M35.698 34.885c-.19.246-.773.586-.773 1.327 0 .611.398 1.2 1.106 1.694 3.37 2.343 9.723 2.034 9.74 2.034a13.958 13.958 0 0 0 7.093-1.957 14.384 14.384 0 0 0 7.132-12.392c.06-5.252-1.875-8.744-2.658-10.29C52.372 5.587 41.653 0 29.997 0A29.997 29.997 0 0 0 0 29.575c.112-8.563 8.624-15.479 18.748-15.479.82 0 5.498.08 9.843 2.36 3.829 2.01 5.835 4.439 7.23 6.845 1.448 2.5 1.705 5.66 1.705 6.918 0 1.259-.642 3.124-1.828 4.666Z" fill="url(#e)"/><path d="M35.698 34.885c-.19.246-.773.586-.773 1.327 0 .611.398 1.2 1.106 1.694 3.37 2.343 9.723 2.034 9.74 2.034a13.958 13.958 0 0 0 7.093-1.957 14.384 14.384 0 0 0 7.132-12.392c.06-5.252-1.875-8.744-2.658-10.29C52.372 5.587 41.653 0 29.997 0A29.997 29.997 0 0 0 0 29.575c.112-8.563 8.624-15.479 18.748-15.479.82 0 5.498.08 9.843 2.36 3.829 2.01 5.835 4.439 7.23 6.845 1.448 2.5 1.705 5.66 1.705 6.918 0 1.259-.642 3.124-1.828 4.666Z" fill="url(#f)"/><defs><radialGradient id="b" cx="0" cy="0" r="1" gradientUnits="userSpaceOnUse" gradientTransform="matrix(22.3523 0 0 21.2347 36.844 41.821)"><stop offset=".72" stop-opacity="0"/><stop offset=".95" stop-opacity=".53"/><stop offset="1"/></radialGradient><radialGradient id="d" cx="0" cy="0" r="1" gradientUnits="userSpaceOnUse" gradientTransform="rotate(-81.384 35.39 13.699) scale(33.6117 27.1549)"><stop offset=".76" stop-opacity="0"/><stop offset=".95" stop-opacity=".5"/><stop offset="1"/></radialGradient><radialGradient id="e" cx="0" cy="0" r="1" gradientUnits="userSpaceOnUse" gradientTransform="rotate(92.291 -2.303 8.463) scale(47.4772 101.116)"><stop stop-color="#35C1F1"/><stop offset=".11" stop-color="#34C1ED"/><stop offset=".23" stop-color="#2FC2DF"/><stop offset=".31" stop-color="#2BC3D2"/><stop offset=".67" stop-color="#36C752"/></radialGradient><radialGradient id="f" cx="0" cy="0" r="1" gradientUnits="userSpaceOnUse" gradientTransform="matrix(6.38722 21.89904 -17.80829 5.19408 56.26 18.14)"><stop stop-color="#66EB6E"/><stop offset="1" stop-color="#66EB6E" stop-opacity="0"/></radialGradient><linearGradient id="a" x1="13.76" y1="41.492" x2="55.554" y2="41.492" gradientUnits="userSpaceOnUse"><stop stop-color="#0C59A4"/><stop offset="1" stop-color="#114A8B"/></linearGradient><linearGradient id="c" x1="35.795" y1="23.362" x2="9.691" y2="51.796" gradientUnits="userSpaceOnUse"><stop stop-color="#1B9DE2"/><stop offset=".16" stop-color="#1595DF"/><stop offset=".67" stop-color="#0680D7"/><stop offset="1" stop-color="#0078D4"/></linearGradient></defs></svg>