<svg width="60" height="60" viewBox="0 0 60 60" fill="none" xmlns="http://www.w3.org/2000/svg">
<path d="M37.2947 17.1886C36.9032 17.5781 36.9016 18.2113 37.2911 18.6028C37.6806 18.9943 38.3138 18.9959 38.7053 18.6063L37.2947 17.1886ZM47.5253 8.42028L48.2306 9.12917L48.2306 9.12917L47.5253 8.42028ZM50.3537 8.42744L51.0626 7.72213L51.0626 7.72212L50.3537 8.42744ZM50.3633 8.43714L49.6496 9.1376L49.6496 9.1376L50.3633 8.43714ZM52.6136 10.73L53.3273 10.0295L52.6136 10.73ZM52.602 13.5436L53.3098 14.2499L53.3098 14.2499L52.602 13.5436ZM42.4581 22.2937C42.068 22.6846 42.0687 23.3178 42.4596 23.7079C42.8506 24.098 43.4837 24.0973 43.8738 23.7063L42.4581 22.2937ZM21.2947 18.6063C21.6862 18.9959 22.3194 18.9943 22.7089 18.6028C23.0984 18.2113 23.0968 17.5781 22.7053 17.1886L21.2947 18.6063ZM12.4747 8.42028L13.1801 7.71139L13.1801 7.71139L12.4747 8.42028ZM9.64632 8.42744L8.93743 7.72212L8.93742 7.72213L9.64632 8.42744ZM9.63674 8.43714L10.3504 9.1376L10.3504 9.1376L9.63674 8.43714ZM7.38639 10.73L6.67271 10.0295L7.38639 10.73ZM7.39803 13.5436L8.1059 12.8372L8.1059 12.8372L7.39803 13.5436ZM16.1262 23.7063C16.5163 24.0973 17.1494 24.098 17.5404 23.7079C17.9313 23.3178 17.932 22.6846 17.5419 22.2937L16.1262 23.7063ZM22.7053 42.8114C23.0968 42.4219 23.0984 41.7887 22.7089 41.3972C22.3194 41.0057 21.6862 41.0041 21.2947 41.3937L22.7053 42.8114ZM12.4747 51.5797L13.1801 52.2886L13.1801 52.2886L12.4747 51.5797ZM9.64632 51.5726L8.93742 52.2779L8.93743 52.2779L9.64632 51.5726ZM9.63674 51.5629L10.3504 50.8624L10.3504 50.8624L9.63674 51.5629ZM7.38639 49.27L8.10008 48.5696L8.10008 48.5696L7.38639 49.27ZM7.39803 46.4564L6.69015 45.7501L6.69015 45.7501L7.39803 46.4564ZM17.5419 37.7063C17.932 37.3154 17.9313 36.6822 17.5404 36.2921C17.1494 35.902 16.5163 35.9027 16.1262 36.2937L17.5419 37.7063ZM38.7053 41.3937C38.3138 41.0041 37.6806 41.0057 37.2911 41.3972C36.9016 41.7887 36.9032 42.4219 37.2947 42.8114L38.7053 41.3937ZM47.5253 51.5797L46.8199 52.2886L47.5253 51.5797ZM50.3537 51.5726L51.0626 52.2779L51.0626 52.2779L50.3537 51.5726ZM50.3633 51.5629L49.6496 50.8624L49.6496 50.8624L50.3633 51.5629ZM52.6136 49.27L51.8999 48.5696L51.8999 48.5696L52.6136 49.27ZM52.602 46.4564L53.3098 45.7501L53.3098 45.7501L52.602 46.4564ZM43.8738 36.2937C43.4837 35.9027 42.8506 35.902 42.4596 36.2921C42.0687 36.6822 42.068 37.3154 42.4581 37.7063L43.8738 36.2937ZM47.5366 8.17061C42.7376 4.31066 36.6373 2 30 2V4C36.1651 4 41.8265 6.14449 46.2831 9.72905L47.5366 8.17061ZM30 2C23.3822 2 17.2982 4.2971 12.5057 8.13665L13.7562 9.6975C18.2067 6.13192 23.853 4 30 4V2ZM7.31696 13.5808C3.97232 18.1937 2 23.868 2 30H4C4 24.3036 5.83073 19.0378 8.93614 14.7548L7.31696 13.5808ZM2 30C2 36.0662 3.93025 41.6846 7.20991 46.2705L8.8367 45.1071C5.79171 40.8493 4 35.6354 4 30H2ZM12.4642 51.83C17.263 55.6896 23.3631 58 30 58V56C23.8353 56 18.1741 53.8557 13.7177 50.2716L12.4642 51.83ZM30 58C36.6788 58 42.8139 55.6604 47.6264 51.7568L46.3665 50.2036C41.8973 53.8286 36.2036 56 30 56V58ZM52.8545 46.18C56.095 41.6107 58 36.0263 58 30H56C56 35.5984 54.2317 40.7808 51.2232 45.023L52.8545 46.18ZM58 30C58 23.9237 56.0634 18.2968 52.7738 13.7068L51.1482 14.8718C54.2024 19.1335 56 24.3553 56 30H58ZM38.7053 18.6063L48.2306 9.12917L46.8199 7.71139L37.2947 17.1886L38.7053 18.6063ZM48.2306 9.12917C48.6221 8.73964 49.2552 8.74124 49.6448 9.13275L51.0626 7.72212C49.894 6.54759 47.9945 6.54278 46.8199 7.71139L48.2306 9.12917ZM49.6448 9.13275C49.6465 9.13445 49.6481 9.13606 49.6496 9.1376L51.0769 7.73667C51.0721 7.73173 51.0673 7.72688 51.0626 7.72213L49.6448 9.13275ZM49.6496 9.1376L51.8999 11.4304L53.3273 10.0295L51.0769 7.73667L49.6496 9.1376ZM51.8999 11.4304C52.2839 11.8217 52.2813 12.4492 51.8941 12.8372L53.3098 14.2499C54.4715 13.0857 54.4793 11.2033 53.3273 10.0295L51.8999 11.4304ZM51.8941 12.8372L42.4581 22.2937L43.8738 23.7063L53.3098 14.2499L51.8941 12.8372ZM22.7053 17.1886L13.1801 7.71139L11.7694 9.12917L21.2947 18.6063L22.7053 17.1886ZM13.1801 7.71139C12.0055 6.54278 10.106 6.54759 8.93743 7.72212L10.3552 9.13275C10.7448 8.74124 11.3779 8.73964 11.7694 9.12917L13.1801 7.71139ZM8.93742 7.72213C8.93256 7.72702 8.92777 7.73187 8.92305 7.73667L10.3504 9.1376C10.3521 9.13592 10.3537 9.13431 10.3552 9.13275L8.93742 7.72213ZM8.92305 7.73667L6.67271 10.0295L8.10008 11.4304L10.3504 9.1376L8.92305 7.73667ZM6.67271 10.0295C5.52069 11.2033 5.52847 13.0857 6.69015 14.2499L8.1059 12.8372C7.71867 12.4492 7.71607 11.8217 8.10008 11.4304L6.67271 10.0295ZM6.69015 14.2499L16.1262 23.7063L17.5419 22.2937L8.1059 12.8372L6.69015 14.2499ZM21.2947 41.3937L11.7694 50.8708L13.1801 52.2886L22.7053 42.8114L21.2947 41.3937ZM11.7694 50.8708C11.3779 51.2604 10.7448 51.2588 10.3552 50.8672L8.93743 52.2779C10.106 53.4524 12.0055 53.4572 13.1801 52.2886L11.7694 50.8708ZM10.3552 50.8672C10.3535 50.8655 10.3519 50.8639 10.3504 50.8624L8.92305 52.2633C8.92797 52.2683 8.93277 52.2732 8.93742 52.2779L10.3552 50.8672ZM10.3504 50.8624L8.10008 48.5696L6.67271 49.9705L8.92305 52.2633L10.3504 50.8624ZM8.10008 48.5696C7.71607 48.1783 7.71867 47.5508 8.1059 47.1628L6.69015 45.7501C5.52847 46.9143 5.52069 48.7967 6.67271 49.9705L8.10008 48.5696ZM8.1059 47.1628L17.5419 37.7063L16.1262 36.2937L6.69015 45.7501L8.1059 47.1628ZM37.2947 42.8114L46.8199 52.2886L48.2306 50.8708L38.7053 41.3937L37.2947 42.8114ZM46.8199 52.2886C47.9945 53.4572 49.894 53.4524 51.0626 52.2779L49.6448 50.8672C49.2552 51.2588 48.6221 51.2604 48.2306 50.8708L46.8199 52.2886ZM51.0626 52.2779C51.0671 52.2733 51.0719 52.2685 51.0769 52.2633L49.6496 50.8624C49.6483 50.8637 49.6467 50.8653 49.6448 50.8672L51.0626 52.2779ZM51.0769 52.2633L53.3273 49.9705L51.8999 48.5696L49.6496 50.8624L51.0769 52.2633ZM53.3273 49.9705C54.4793 48.7967 54.4715 46.9143 53.3098 45.7501L51.8941 47.1628C52.2813 47.5508 52.2839 48.1783 51.8999 48.5696L53.3273 49.9705ZM53.3098 45.7501L43.8738 36.2937L42.4581 37.7063L51.8941 47.1628L53.3098 45.7501ZM43 30C43 37.1797 37.1797 43 30 43V45C38.2843 45 45 38.2843 45 30H43ZM30 43C22.8203 43 17 37.1797 17 30H15C15 38.2843 21.7157 45 30 45V43ZM17 30C17 22.8203 22.8203 17 30 17V15C21.7157 15 15 21.7157 15 30H17ZM30 17C37.1797 17 43 22.8203 43 30H45C45 21.7157 38.2843 15 30 15V17Z" fill="#25282D"/>
</svg>
