<svg width="400" height="200" viewBox="0 0 400 200" fill="none" xmlns="http://www.w3.org/2000/svg">
<g clip-path="url(#clip0_418_46387)">
<rect width="400" height="200" fill="#A6E1F2"/>
<path d="M33 71H27V77H33V71Z" stroke="#6CB4E4" stroke-width="1.89445" stroke-linecap="round" stroke-linejoin="round"/>
<path d="M316 38C318.206 38 320 36.2114 320 34C320 31.7886 318.211 30 316 30C313.789 30 312 31.7886 312 34C312 36.2114 313.789 38 316 38Z" stroke="#6CB4E4" stroke-width="1.66576" stroke-linecap="round" stroke-linejoin="round"/>
<path d="M144.155 23.0242C144.261 22.569 144.489 22.1525 144.823 21.8232C145.153 21.4939 145.569 21.2663 146.024 21.1598L149.763 20.2978C149.83 20.2833 149.893 20.2446 149.937 20.1913C149.981 20.138 150.005 20.0702 150.005 19.9976C150.005 19.9249 149.981 19.8571 149.937 19.8039C149.893 19.7506 149.83 19.7119 149.763 19.6973L146.024 18.8353C145.569 18.7288 145.157 18.5012 144.828 18.1719C144.499 17.8426 144.266 17.4262 144.165 16.9758L143.303 13.2421C143.288 13.1743 143.249 13.1114 143.196 13.0678C143.143 13.0242 143.075 13 143.002 13C142.93 13 142.862 13.0242 142.809 13.0678C142.755 13.1114 142.717 13.1743 142.697 13.2421L141.835 16.9758C141.729 17.431 141.501 17.8426 141.172 18.1719C140.843 18.5012 140.426 18.7337 139.976 18.8353L136.242 19.6973C136.174 19.7119 136.111 19.7506 136.068 19.8039C136.024 19.8571 136 19.9249 136 19.9976C136 20.0702 136.024 20.138 136.068 20.1913C136.111 20.2446 136.174 20.2833 136.242 20.2978L139.976 21.1598C140.431 21.2663 140.843 21.4939 141.172 21.8232C141.501 22.1525 141.734 22.569 141.835 23.0194L142.697 26.7579C142.712 26.8257 142.751 26.8886 142.809 26.9322C142.862 26.9758 142.93 27 143.002 27C143.075 27 143.143 26.9758 143.196 26.9322C143.249 26.8886 143.288 26.8257 143.303 26.7579L144.16 23.0194L144.155 23.0242Z" fill="#DD2222"/>
<path d="M357.658 78.7281C357.719 78.468 357.849 78.23 358.04 78.0419C358.228 77.8537 358.466 77.7236 358.726 77.6627L360.862 77.1702C360.9 77.1619 360.936 77.1397 360.961 77.1093C360.986 77.0789 361 77.0401 361 76.9986C361 76.9571 360.986 76.9184 360.961 76.8879C360.936 76.8575 360.9 76.8354 360.862 76.8271L358.726 76.3345C358.466 76.2736 358.231 76.1435 358.043 75.9554C357.855 75.7672 357.722 75.5292 357.664 75.2719L357.171 73.1384C357.163 73.0996 357.141 73.0636 357.111 73.0387C357.08 73.0138 357.041 73 357 73C356.958 73 356.92 73.0138 356.889 73.0387C356.859 73.0636 356.837 73.0996 356.826 73.1384L356.333 75.2719C356.272 75.532 356.142 75.7672 355.954 75.9554C355.766 76.1435 355.528 76.2764 355.271 76.3345L353.138 76.8271C353.1 76.8354 353.064 76.8575 353.039 76.8879C353.014 76.9184 353 76.9571 353 76.9986C353 77.0401 353.014 77.0789 353.039 77.1093C353.064 77.1397 353.1 77.1619 353.138 77.1702L355.271 77.6627C355.531 77.7236 355.766 77.8537 355.954 78.0419C356.142 78.23 356.275 78.468 356.333 78.7254L356.826 80.8616C356.834 80.9004 356.856 80.9364 356.889 80.9613C356.92 80.9862 356.958 81 357 81C357.041 81 357.08 80.9862 357.111 80.9613C357.141 80.9364 357.163 80.9004 357.171 80.8616L357.661 78.7254L357.658 78.7281Z" fill="#DD2222"/>
<path d="M281.658 178.728C281.719 178.468 281.849 178.23 282.04 178.042C282.228 177.854 282.466 177.724 282.726 177.663L284.862 177.17C284.9 177.162 284.936 177.14 284.961 177.109C284.986 177.079 285 177.04 285 176.999C285 176.957 284.986 176.918 284.961 176.888C284.936 176.857 284.9 176.835 284.862 176.827L282.726 176.334C282.466 176.274 282.231 176.144 282.043 175.955C281.855 175.767 281.722 175.529 281.664 175.272L281.171 173.138C281.163 173.1 281.141 173.064 281.111 173.039C281.08 173.014 281.041 173 281 173C280.958 173 280.92 173.014 280.889 173.039C280.859 173.064 280.837 173.1 280.826 173.138L280.333 175.272C280.272 175.532 280.142 175.767 279.954 175.955C279.766 176.144 279.528 176.276 279.271 176.334L277.138 176.827C277.1 176.835 277.064 176.857 277.039 176.888C277.014 176.918 277 176.957 277 176.999C277 177.04 277.014 177.079 277.039 177.109C277.064 177.14 277.1 177.162 277.138 177.17L279.271 177.663C279.531 177.724 279.766 177.854 279.954 178.042C280.142 178.23 280.275 178.468 280.333 178.725L280.826 180.862C280.834 180.9 280.856 180.936 280.889 180.961C280.92 180.986 280.958 181 281 181C281.041 181 281.08 180.986 281.111 180.961C281.141 180.936 281.163 180.9 281.171 180.862L281.661 178.725L281.658 178.728Z" fill="#DD2222"/>
<path d="M162.004 19C161.452 19 161.004 19.4477 161.004 20C161.004 20.5523 161.452 21 162.004 21V19ZM275.671 41C275.671 43.9455 278.058 46.3333 281.004 46.3333C283.949 46.3333 286.337 43.9455 286.337 41C286.337 38.0545 283.949 35.6667 281.004 35.6667C278.058 35.6667 275.671 38.0545 275.671 41ZM162.004 21H273.004V19H162.004V21ZM280.004 28V41H282.004V28H280.004ZM273.004 21C276.87 21 280.004 24.134 280.004 28H282.004C282.004 23.0294 277.974 19 273.004 19V21Z" fill="#315CAE"/>
<path d="M-3 166C-3.55228 166 -4 166.448 -4 167C-4 167.552 -3.55228 168 -3 168V166ZM74.6667 167C74.6667 169.946 77.0545 172.333 80 172.333C82.9455 172.333 85.3333 169.946 85.3333 167C85.3333 164.054 82.9455 161.667 80 161.667C77.0545 161.667 74.6667 164.054 74.6667 167ZM-3 168H58V166H-3V168ZM58 168H80V166H58V168Z" fill="#315CAE"/>
<path d="M373 216C373 216.552 372.552 217 372 217C371.448 217 371 216.552 371 216L373 216ZM347 109.333C344.054 109.333 341.667 106.946 341.667 104C341.667 101.054 344.054 98.6667 347 98.6667C349.946 98.6667 352.333 101.054 352.333 104C352.333 106.946 349.946 109.333 347 109.333ZM371 216L371 112L373 112L373 216L371 216ZM364 105L347 105L347 103L364 103L364 105ZM371 112C371 108.134 367.866 105 364 105L364 103C368.971 103 373 107.029 373 112L371 112Z" fill="#315CAE"/>
<path d="M124 20H71.9115C67.4932 20 63.9115 23.5817 63.9115 28V100.465C63.9115 104.883 60.3298 108.465 55.9115 108.465H-18" stroke="#315CAE" stroke-width="2" stroke-linecap="round" stroke-linejoin="round" stroke-dasharray="0.1 4"/>
<path d="M226.547 91.3703V107.231H235.568V93.8289C235.568 73.0883 263.344 72.7692 263.344 93.8289V107.23L272.365 107.231V91.3703C272.365 62.2934 226.547 62.734 226.547 91.3703Z" fill="white" stroke="#315CAE" stroke-width="4"/>
<path d="M242.91 78.4546C233.407 79.5929 230.028 86.8024 231.101 104.636H233.606C233.248 81.8696 236.827 82.6285 242.91 78.4546Z" fill="#B7CBEF"/>
<path d="M226.547 91.3703V107.231H235.568V93.8289C235.568 73.0883 263.344 72.7692 263.344 93.8289V107.23L272.365 107.231V91.3703C272.365 62.2934 226.547 62.734 226.547 91.3703Z" stroke="#315CAE" stroke-width="4"/>
<path fill-rule="evenodd" clip-rule="evenodd" d="M219.262 109.54C219.262 107.908 220.584 106.586 222.216 106.586H275.384C277.015 106.586 278.338 107.908 278.338 109.54V147.937C278.338 149.568 277.015 150.891 275.384 150.891H222.216C220.584 150.891 219.262 149.568 219.262 147.937V109.54Z" fill="white" stroke="#315CAE" stroke-width="4" stroke-linecap="round" stroke-dasharray="100.09 7.62 1.09 4.35"/>
<path d="M224.379 143.875V107.324H223.268C221.465 107.324 220.004 108.785 220.004 110.588V146.888C220.004 148.691 221.465 150.152 223.268 150.152H273.99C276.393 150.152 278.341 148.203 278.341 145.8V143.875H224.379Z" fill="#A6E1F2"/>
<path d="M276.207 106.818H218.343C218.054 106.818 217.82 107.063 217.82 107.364C217.82 107.665 218.054 107.909 218.343 107.909H276.207C276.495 107.909 276.73 107.665 276.73 107.364C276.73 107.063 276.495 106.818 276.207 106.818Z" fill="#315CAE" stroke="#315CAE" stroke-width="4"/>
<path d="M277.267 145H216.189C215.884 145 215.637 145.244 215.637 145.545C215.637 145.847 215.884 146.091 216.189 146.091H277.267C277.572 146.091 277.819 145.847 277.819 145.545C277.819 145.244 277.572 145 277.267 145Z" fill="#315CAE" stroke="#315CAE" stroke-width="4"/>
<path d="M227.637 134.091H266.91" stroke="#3B70D4" stroke-width="4" stroke-linecap="round"/>
<path d="M227.637 126.455H266.91" stroke="#3B70D4" stroke-width="4" stroke-linecap="round"/>
<path d="M227.637 118.818H266.91" stroke="#3B70D4" stroke-width="4" stroke-linecap="round"/>
<path d="M131.637 91.3703V107.231H140.658V93.8289C140.658 73.0883 168.434 72.7692 168.434 93.8289V107.23L177.455 107.231V91.3703C177.455 62.2934 131.637 62.734 131.637 91.3703Z" fill="white" stroke="#315CAE" stroke-width="4"/>
<path d="M148 78.4546C138.497 79.5929 135.118 86.8024 136.191 104.636H138.696C138.338 81.8696 141.916 82.6285 148 78.4546Z" fill="#B7CBEF"/>
<path d="M131.637 91.3703V107.231H140.658V93.8289C140.658 73.0883 168.434 72.7692 168.434 93.8289V107.23L177.455 107.231V91.3703C177.455 62.2934 131.637 62.734 131.637 91.3703Z" stroke="#315CAE" stroke-width="4"/>
<path fill-rule="evenodd" clip-rule="evenodd" d="M125.66 109.54C125.66 107.909 126.983 106.586 128.614 106.586H181.782C183.414 106.586 184.736 107.909 184.736 109.54V147.938C184.736 149.569 183.414 150.891 181.782 150.891H128.614C126.983 150.891 125.66 149.569 125.66 147.938V109.54Z" fill="white" stroke="#315CAE" stroke-width="4" stroke-linecap="round" stroke-dasharray="100.09 7.62 1.09 4.35"/>
<path d="M130.778 143.876V107.324H129.666C127.864 107.324 126.402 108.785 126.402 110.588V146.889C126.402 148.691 127.864 150.152 129.666 150.152H180.388C182.791 150.152 184.74 148.204 184.74 145.801V143.876H130.778Z" fill="#A6E1F2"/>
<path d="M185.66 106.818H127.796C127.508 106.818 127.273 107.063 127.273 107.364C127.273 107.665 127.508 107.909 127.796 107.909H185.66C185.949 107.909 186.183 107.665 186.183 107.364C186.183 107.063 185.949 106.818 185.66 106.818Z" fill="#315CAE" stroke="#315CAE" stroke-width="4"/>
<path d="M187.814 145H126.736C126.431 145 126.184 145.244 126.184 145.545C126.184 145.847 126.431 146.091 126.736 146.091H187.814C188.118 146.091 188.366 145.847 188.366 145.545C188.366 145.244 188.118 145 187.814 145Z" fill="#315CAE" stroke="#315CAE" stroke-width="4"/>
<path d="M136 134.091H175.273" stroke="#3B70D4" stroke-width="4" stroke-linecap="round"/>
<path d="M136 126.455H175.273" stroke="#3B70D4" stroke-width="4" stroke-linecap="round"/>
<path d="M136 118.818H175.273" stroke="#3B70D4" stroke-width="4" stroke-linecap="round"/>
<path d="M236.814 98.0908H166.092C165.739 98.0908 165.453 98.5792 165.453 99.1817C165.453 99.7842 165.739 100.273 166.092 100.273H236.814C237.167 100.273 237.453 99.7842 237.453 99.1817C237.453 98.5792 237.167 98.0908 236.814 98.0908Z" fill="#315CAE" stroke="#315CAE" stroke-width="4"/>
<path d="M169 77.7006V98H179.731V80.8472C179.731 54.3014 220.269 53.893 220.269 80.8472V97.9999L231 98V77.7006C231 40.4851 169 41.049 169 77.7006Z" fill="white" stroke="#315CAE" stroke-width="4"/>
<path d="M194 60C178.162 61.7391 172.529 72.7536 174.319 100H178.493C177.897 65.2174 183.861 66.3768 194 60Z" fill="#B7CBEF"/>
<path d="M169 77.7006V98H179.731V80.8472C179.731 54.3014 220.269 53.893 220.269 80.8472V97.9999L231 98V77.7006C231 40.4851 169 41.049 169 77.7006Z" stroke="#315CAE" stroke-width="4"/>
<path fill-rule="evenodd" clip-rule="evenodd" d="M160 102.236C160 99.9468 161.856 98.0908 164.145 98.0908H238.764C241.053 98.0908 242.909 99.9468 242.909 102.236V156.127C242.909 158.417 241.053 160.273 238.764 160.273H164.145C161.856 160.273 160 158.417 160 156.127V102.236Z" fill="white" stroke="#315CAE" stroke-width="4" stroke-linecap="round" stroke-dasharray="100.09 7.62 1.09 4.35"/>
<path d="M166.568 150.394V98.9175H163.67C161.867 98.9175 160.406 100.379 160.406 102.181V155.97C160.406 157.772 161.867 159.234 163.67 159.234H238.213C240.617 159.234 242.565 157.285 242.565 154.882V150.394H166.568Z" fill="#A6E1F2"/>
<path d="M242.173 100.273H160.736C160.329 100.273 160 100.761 160 101.364C160 101.966 160.329 102.455 160.736 102.455H242.173C242.58 102.455 242.909 101.966 242.909 101.364C242.909 100.761 242.58 100.273 242.173 100.273Z" fill="#315CAE" stroke="#315CAE" stroke-width="4"/>
<path d="M242.173 152.637H160.736C160.329 152.637 160 153.125 160 153.728C160 154.33 160.329 154.819 160.736 154.819H242.173C242.58 154.819 242.909 154.33 242.909 153.728C242.909 153.125 242.58 152.637 242.173 152.637Z" fill="#315CAE" stroke="#315CAE" stroke-width="4"/>
<path d="M174.184 131.881H233.093" stroke="#3B70D4" stroke-width="4" stroke-linecap="round"/>
<path d="M174.184 140.595H233.093" stroke="#3B70D4" stroke-width="4" stroke-linecap="round"/>
<path d="M174.184 123.168H233.093" stroke="#3B70D4" stroke-width="4" stroke-linecap="round"/>
<path d="M174.184 114.455H233.093" stroke="#3B70D4" stroke-width="4" stroke-linecap="round"/>
<path fill-rule="evenodd" clip-rule="evenodd" d="M213.366 129.517C213.366 135.534 208.49 140.41 202.476 140.41C196.458 140.41 191.582 135.534 191.582 129.517C191.582 123.503 196.458 118.627 202.476 118.627C208.49 118.627 213.366 123.503 213.366 129.517Z" fill="white"/>
<path d="M197.245 121.747C195.294 126.947 196.462 135.786 204.133 138.386C193.213 138.906 190.614 126.427 197.245 121.747Z" fill="#B7CBEF"/>
<path fill-rule="evenodd" clip-rule="evenodd" d="M213.366 129.517C213.366 135.534 208.49 140.41 202.476 140.41C196.458 140.41 191.582 135.534 191.582 129.517C191.582 123.503 196.458 118.627 202.476 118.627C208.49 118.627 213.366 123.503 213.366 129.517Z" stroke="#315CAE" stroke-width="4" stroke-linecap="round" stroke-linejoin="round"/>
<path d="M203.566 133.358V124.645C203.566 124.344 203.079 124.1 202.477 124.1C201.876 124.1 201.388 124.344 201.388 124.645V133.358C201.388 133.659 201.876 133.903 202.477 133.903C203.079 133.903 203.566 133.659 203.566 133.358Z" fill="#F0F2F5" stroke="#DD2222" stroke-width="4"/>
</g>
<defs>
<clipPath id="clip0_418_46387">
<rect width="400" height="200" fill="white"/>
</clipPath>
</defs>
</svg>
