<svg width="61" height="61" viewBox="0 0 61 61" fill="none" xmlns="http://www.w3.org/2000/svg">
<g id="icon_user-directory-integration">
<path id="Vector" d="M46.4875 27.7855H48.6235C49.3284 27.7855 49.9812 28.1565 50.3419 28.7622L58.206 41.9691C58.3903 42.2786 58.4875 42.6321 58.4875 42.9923V57.7855C58.4875 58.89 57.5921 59.7855 56.4875 59.7855H4.48755C3.38298 59.7855 2.48755 58.89 2.48755 57.7855V42.9791C2.48755 42.6272 2.58038 42.2816 2.75667 41.9771L10.3947 28.7834C10.7522 28.1658 11.4118 27.7855 12.1255 27.7855H14.5098M46.4875 36.7855V18.7855C46.4875 17.6809 45.5921 16.7855 44.4875 16.7855H29.1827C28.4684 16.7855 27.8084 16.4045 27.451 15.7861L26.2946 13.7848C25.9372 13.1664 25.2771 12.7855 24.5629 12.7855H16.4875C15.383 12.7855 14.4875 13.6809 14.4875 14.7855V36.7855M23.4876 36.7689C24.7223 33.8242 27.3911 31.7855 30.484 31.7855C33.5837 31.7855 36.2562 33.8318 37.4876 36.7855M44.4875 11.7855H32.6674C31.9407 11.7855 31.2712 11.3913 30.9186 10.7558L29.8418 8.8151C29.4892 8.17965 28.8197 7.78546 28.0929 7.78546H18.4875M42.4875 6.78546H35.0927C34.3762 6.78546 33.7145 6.40226 33.358 5.78088L32.2156 3.79004C31.859 3.16866 31.1973 2.78546 30.4809 2.78546H20.4875M35.4876 26.7855C35.4876 29.5455 33.2492 31.7855 30.4876 31.7855C27.7242 31.7855 25.4876 29.5455 25.4876 26.7855C25.4876 24.0238 27.7242 21.7855 30.4876 21.7855C33.2492 21.7855 35.4876 24.0238 35.4876 26.7855ZM2.85782 42.7855H20.7484V45.7855C20.7484 47.9946 22.5393 49.7855 24.7484 49.7855H37.4441C39.6532 49.7855 41.4441 47.9946 41.4441 45.7855V42.7855H58.0504H2.85782Z" stroke="#25282D" stroke-width="2" stroke-linecap="round" stroke-linejoin="round"/>
</g>
</svg>
