<svg width="60" height="60" fill="none" xmlns="http://www.w3.org/2000/svg"><path d="M56.901 20.143c-1.273-3.047-3.82-6.327-5.826-7.355a30.266 30.266 0 0 1 2.943 8.818v.053c-3.273-8.203-8.837-11.505-13.384-18.71-.24-.36-.464-.728-.689-1.11-.127-.226-.224-.421-.322-.601A5.29 5.29 0 0 1 39.19.082a.076.076 0 0 0-.06-.075.105.105 0 0 0-.075 0v.015c0 .015-.022 0-.022 0V.007c-7.28 4.278-9.759 12.203-9.984 16.158a14.512 14.512 0 0 0-7.99 3.092 8.683 8.683 0 0 0-.75-.57 13.513 13.513 0 0 1-.075-7.13 21.502 21.502 0 0 0-6.995 5.419c-1.16-1.456-1.078-6.274-1.01-7.28a5.19 5.19 0 0 0-.974.51 21.154 21.154 0 0 0-2.846 2.44A25.388 25.388 0 0 0 5.71 15.91a24.589 24.589 0 0 0-3.894 8.81l-.053.204a43.122 43.122 0 0 0-.284 1.8v.076a27.782 27.782 0 0 0-.464 4.007v.15A29.123 29.123 0 0 0 8.68 50.605a28.987 28.987 0 0 0 39.095 3.34A29.1 29.1 0 0 0 58.645 35.88c.053-.376.09-.75.135-1.126a29.973 29.973 0 0 0-1.872-14.612H56.9ZM23.446 42.906c.135.075.262.15.397.202l.023.015c-.135-.07-.273-.145-.412-.225l-.008.008Zm30.58-21.255v-.022.03-.008Z" fill="url(#a)"/><path d="M56.901 20.143c-1.273-3.047-3.82-6.327-5.826-7.355a30.266 30.266 0 0 1 2.943 8.818v.06a26.393 26.393 0 0 1-.899 19.633c-3.325 7.153-11.384 14.485-23.988 14.125-13.616-.376-25.614-10.507-27.86-23.776-.405-2.101 0-3.152.209-4.856a21.717 21.717 0 0 0-.464 4.008v.15A29.123 29.123 0 0 0 8.68 50.597a28.986 28.986 0 0 0 39.095 3.34 29.1 29.1 0 0 0 10.871-18.064c.053-.375.09-.75.135-1.125a29.973 29.973 0 0 0-1.872-14.613l-.008.008Z" fill="url(#b)"/><path d="M56.901 20.143c-1.273-3.047-3.82-6.327-5.826-7.355a30.266 30.266 0 0 1 2.943 8.818v.06a26.393 26.393 0 0 1-.899 19.633c-3.325 7.153-11.384 14.485-23.988 14.125-13.616-.376-25.614-10.507-27.86-23.776-.405-2.101 0-3.152.209-4.856a21.717 21.717 0 0 0-.464 4.008v.15A29.123 29.123 0 0 0 8.68 50.597a28.986 28.986 0 0 0 39.095 3.34 29.1 29.1 0 0 0 10.871-18.064c.053-.375.09-.75.135-1.125a29.973 29.973 0 0 0-1.872-14.613l-.008.008Z" fill="url(#c)"/><path d="M42.792 23.558c.075.045.12.09.18.135a15.832 15.832 0 0 0-2.697-3.528C31.258 11.13 37.916.562 39.04.03V.007c-7.28 4.278-9.76 12.203-9.984 16.158.337-.022.674-.045 1.019-.045 2.585.004 5.124.693 7.357 1.998a14.666 14.666 0 0 1 5.36 5.432v.008Z" fill="url(#d)"/><path d="M30.097 25.374c-.052.713-2.599 3.212-3.498 3.212-8.253 0-9.586 4.998-9.586 4.998.36 4.218 3.295 7.685 6.83 9.532l.495.225c.284.125.569.242.854.352 1.214.433 2.486.681 3.774.736 14.47.675 17.27-17.337 6.83-22.568a10.005 10.005 0 0 1 6.995 1.712 14.665 14.665 0 0 0-5.359-5.432 14.626 14.626 0 0 0-7.358-1.998 14.512 14.512 0 0 0-9.01 3.13c.45.375.945.87 2 1.913 1.97 1.951 7.018 3.955 7.04 4.203l-.007-.015Z" fill="url(#e)"/><path d="M30.097 25.374c-.052.713-2.599 3.212-3.498 3.212-8.253 0-9.586 4.998-9.586 4.998.36 4.218 3.295 7.685 6.83 9.532l.495.225c.284.125.569.242.854.352 1.214.433 2.486.681 3.774.736 14.47.675 17.27-17.337 6.83-22.568a10.005 10.005 0 0 1 6.995 1.712 14.665 14.665 0 0 0-5.359-5.432 14.626 14.626 0 0 0-7.358-1.998 14.512 14.512 0 0 0-9.01 3.13c.45.375.945.87 2 1.913 1.97 1.951 7.018 3.955 7.04 4.203l-.007-.015Z" fill="url(#f)"/><path d="M19.716 18.29c.225.15.427.277.6.397a13.513 13.513 0 0 1-.075-7.13 21.502 21.502 0 0 0-6.995 5.419c.15 0 4.344-.075 6.47 1.306v.007Z" fill="url(#g)"/><path d="M1.278 31.648c2.247 13.262 14.23 23.393 27.86 23.776 12.605.36 20.656-6.98 23.982-14.124a26.393 26.393 0 0 0 .898-19.634v-.06l.015.053c1.019 6.74-2.396 13.261-7.744 17.674l-.022.038c-10.41 8.503-20.371 5.133-22.393 3.752a4.84 4.84 0 0 1-.427-.21c-6.067-2.904-8.583-8.45-8.044-13.209a7.44 7.44 0 0 1-4.078-1.144 7.463 7.463 0 0 1-2.797-3.186 10.933 10.933 0 0 1 10.672-.428 14.427 14.427 0 0 0 10.89.428c-.015-.24-5.063-2.252-7.04-4.203-1.049-1.036-1.543-1.531-1.992-1.906a8.664 8.664 0 0 0-.75-.57c-.172-.12-.359-.248-.599-.398-2.112-1.381-6.32-1.306-6.463-1.306h-.015c-1.146-1.456-1.07-6.274-1.004-7.28a5.19 5.19 0 0 0-.973.51 21.157 21.157 0 0 0-2.846 2.447 25.384 25.384 0 0 0-2.719 3.257 24.59 24.59 0 0 0-3.894 8.81c-.015.061-1.049 4.579-.54 6.92l.023-.007Z" fill="url(#h)"/><path d="M40.283 20.165a15.829 15.829 0 0 1 2.696 3.528c.15.127.3.247.434.36 6.59 6.079 3.146 14.672 2.884 15.288 5.34-4.413 8.762-10.935 7.736-17.675-3.295-8.203-8.852-11.505-13.406-18.71a48.18 48.18 0 0 1-.674-1.11c-.127-.225-.225-.42-.322-.6A5.3 5.3 0 0 1 39.19.081a.075.075 0 0 0-.06-.075.105.105 0 0 0-.075 0v.015c0 .015-.022 0-.022 0-1.123.54-7.789 11.107 1.243 20.143h.008Z" fill="url(#i)"/><path d="M43.405 24.053a5.542 5.542 0 0 0-.434-.36l-.18-.135a10.004 10.004 0 0 0-7.002-1.704c10.44 5.238 7.639 23.266-6.83 22.575a12.882 12.882 0 0 1-3.768-.728c-.285-.1-.57-.215-.854-.345-.165-.075-.322-.15-.487-.225h.023c2.022 1.38 11.983 4.758 22.408-3.753l.015-.03c.262-.6 3.707-9.208-2.876-15.28l-.015-.015Z" fill="url(#j)"/><path d="M17.005 33.584s1.348-4.998 9.587-4.998c.898 0 3.445-2.5 3.505-3.227a14.427 14.427 0 0 1-10.905-.42 10.93 10.93 0 0 0-10.672.427 7.462 7.462 0 0 0 2.805 3.186 7.44 7.44 0 0 0 4.085 1.137c-.547 4.758 1.962 10.305 8.036 13.21.135.074.262.134.397.202-3.542-1.839-6.47-5.306-6.838-9.532v.015Z" fill="url(#k)"/><path d="M56.9 20.143c-1.272-3.047-3.819-6.327-5.826-7.355a30.263 30.263 0 0 1 2.943 8.818v.053c-3.272-8.203-8.837-11.505-13.383-18.71-.24-.36-.464-.728-.69-1.11-.126-.226-.224-.421-.321-.601a5.3 5.3 0 0 1-.435-1.156.075.075 0 0 0-.06-.075.105.105 0 0 0-.074 0v.015c0 .015-.023 0-.023 0V.007c-7.28 4.278-9.758 12.203-9.983 16.158.337-.022.674-.045 1.018-.045 2.586.004 5.124.693 7.358 1.998a14.665 14.665 0 0 1 5.36 5.432 10.004 10.004 0 0 0-6.996-1.696c10.44 5.238 7.64 23.265-6.83 22.575a12.883 12.883 0 0 1-3.775-.728c-.284-.1-.569-.215-.854-.345l-.494-.225h.023a10.738 10.738 0 0 1-.412-.21c.134.075.262.15.397.202-3.543-1.839-6.471-5.306-6.838-9.531 0 0 1.348-4.991 9.586-4.991.899 0 3.445-2.5 3.505-3.227-.015-.225-5.063-2.252-7.04-4.188-1.048-1.05-1.55-1.538-1.992-1.914a8.699 8.699 0 0 0-.749-.57 13.513 13.513 0 0 1-.075-7.13 21.502 21.502 0 0 0-6.995 5.419c-1.16-1.456-1.078-6.274-1.01-7.28a5.191 5.191 0 0 0-.974.51 21.154 21.154 0 0 0-2.846 2.44 25.388 25.388 0 0 0-2.697 3.264 24.59 24.59 0 0 0-3.894 8.81l-.06.189c-.053.247-.3 1.553-.337 1.83A33.915 33.915 0 0 0 1 30.808v.15a29.123 29.123 0 0 0 7.664 19.647 28.987 28.987 0 0 0 39.095 3.34A29.1 29.1 0 0 0 58.63 35.88c.052-.376.09-.75.135-1.126a29.973 29.973 0 0 0-1.873-14.612h.008Zm-2.883 1.5v.023-.022Z" fill="url(#l)"/><defs><radialGradient id="b" cx="0" cy="0" r="1" gradientUnits="userSpaceOnUse" gradientTransform="matrix(60.5121 0 0 60.638 51.803 6.67)"><stop offset=".129" stop-color="#FFBD4F"/><stop offset=".186" stop-color="#FFAC31"/><stop offset=".247" stop-color="#FF9D17"/><stop offset=".283" stop-color="#FF980E"/><stop offset=".403" stop-color="#FF563B"/><stop offset=".467" stop-color="#FF3750"/><stop offset=".71" stop-color="#F5156C"/><stop offset=".782" stop-color="#EB0878"/><stop offset=".86" stop-color="#E50080"/></radialGradient><radialGradient id="c" cx="0" cy="0" r="1" gradientUnits="userSpaceOnUse" gradientTransform="matrix(60.5121 0 0 60.638 29.692 31.461)"><stop offset=".3" stop-color="#960E18"/><stop offset=".351" stop-color="#B11927" stop-opacity=".74"/><stop offset=".435" stop-color="#DB293D" stop-opacity=".343"/><stop offset=".497" stop-color="#F5334B" stop-opacity=".094"/><stop offset=".53" stop-color="#FF3750" stop-opacity="0"/></radialGradient><radialGradient id="d" cx="0" cy="0" r="1" gradientUnits="userSpaceOnUse" gradientTransform="matrix(43.8387 0 0 43.9299 36.987 -7.09)"><stop offset=".132" stop-color="#FFF44F"/><stop offset=".252" stop-color="#FFDC3E"/><stop offset=".506" stop-color="#FF9D12"/><stop offset=".526" stop-color="#FF980E"/></radialGradient><radialGradient id="e" cx="0" cy="0" r="1" gradientUnits="userSpaceOnUse" gradientTransform="matrix(28.8124 0 0 28.8725 22.999 47.3)"><stop offset=".353" stop-color="#3A8EE6"/><stop offset=".472" stop-color="#5C79F0"/><stop offset=".669" stop-color="#9059FF"/><stop offset="1" stop-color="#C139E6"/></radialGradient><radialGradient id="f" cx="0" cy="0" r="1" gradientUnits="userSpaceOnUse" gradientTransform="matrix(14.84834 -3.59735 4.21941 17.41596 32.998 26.492)"><stop offset=".206" stop-color="#9059FF" stop-opacity="0"/><stop offset=".278" stop-color="#8C4FF3" stop-opacity=".064"/><stop offset=".747" stop-color="#7716A8" stop-opacity=".45"/><stop offset=".975" stop-color="#6E008B" stop-opacity=".6"/></radialGradient><radialGradient id="g" cx="0" cy="0" r="1" gradientUnits="userSpaceOnUse" gradientTransform="matrix(20.7276 0 0 20.7709 28.928 4.19)"><stop stop-color="#FFE226"/><stop offset=".121" stop-color="#FFDB27"/><stop offset=".295" stop-color="#FFC82A"/><stop offset=".502" stop-color="#FFA930"/><stop offset=".732" stop-color="#FF7E37"/><stop offset=".792" stop-color="#FF7139"/></radialGradient><radialGradient id="h" cx="0" cy="0" r="1" gradientUnits="userSpaceOnUse" gradientTransform="matrix(88.4356 0 0 88.6201 45.22 -8.985)"><stop offset=".113" stop-color="#FFF44F"/><stop offset=".456" stop-color="#FF980E"/><stop offset=".622" stop-color="#FF5634"/><stop offset=".716" stop-color="#FF3647"/><stop offset=".904" stop-color="#E31587"/></radialGradient><radialGradient id="i" cx="0" cy="0" r="1" gradientUnits="userSpaceOnUse" gradientTransform="rotate(83.989 21.137 18.948) scale(64.9501 42.539)"><stop stop-color="#FFF44F"/><stop offset=".06" stop-color="#FFE847"/><stop offset=".168" stop-color="#FFC830"/><stop offset=".304" stop-color="#FF980E"/><stop offset=".356" stop-color="#FF8B16"/><stop offset=".455" stop-color="#FF672A"/><stop offset=".57" stop-color="#FF3647"/><stop offset=".737" stop-color="#E31587"/></radialGradient><radialGradient id="j" cx="0" cy="0" r="1" gradientUnits="userSpaceOnUse" gradientTransform="matrix(55.212 0 0 55.3271 28.44 11.883)"><stop offset=".137" stop-color="#FFF44F"/><stop offset=".48" stop-color="#FF980E"/><stop offset=".592" stop-color="#FF5634"/><stop offset=".655" stop-color="#FF3647"/><stop offset=".904" stop-color="#E31587"/></radialGradient><radialGradient id="k" cx="0" cy="0" r="1" gradientUnits="userSpaceOnUse" gradientTransform="matrix(60.429 0 0 60.5551 43.014 15.121)"><stop offset=".094" stop-color="#FFF44F"/><stop offset=".231" stop-color="#FFE141"/><stop offset=".509" stop-color="#FFAF1E"/><stop offset=".626" stop-color="#FF980E"/></radialGradient><linearGradient id="a" x1="53.085" y1="9.3" x2="3.313" y2="54.163" gradientUnits="userSpaceOnUse"><stop offset=".048" stop-color="#FFF44F"/><stop offset=".111" stop-color="#FFE847"/><stop offset=".225" stop-color="#FFC830"/><stop offset=".368" stop-color="#FF980E"/><stop offset=".401" stop-color="#FF8B16"/><stop offset=".462" stop-color="#FF672A"/><stop offset=".534" stop-color="#FF3647"/><stop offset=".705" stop-color="#E31587"/></linearGradient><linearGradient id="l" x1="52.49" y1="9.06" x2="10.085" y2="48.651" gradientUnits="userSpaceOnUse"><stop offset=".167" stop-color="#FFF44F" stop-opacity=".8"/><stop offset=".266" stop-color="#FFF44F" stop-opacity=".634"/><stop offset=".489" stop-color="#FFF44F" stop-opacity=".217"/><stop offset=".6" stop-color="#FFF44F" stop-opacity="0"/></linearGradient></defs></svg>