<svg width="60" height="60" viewBox="0 0 60 60" fill="none" xmlns="http://www.w3.org/2000/svg">
<path d="M47.016 31.7066C46.9893 26.7905 49.2056 23.08 53.6916 20.3474C51.1816 16.7441 47.3899 14.7616 42.3832 14.3731C37.6435 13.998 32.4633 17.1459 30.5674 17.1459C28.5648 17.1459 23.972 14.507 20.3672 14.507C12.9172 14.6276 5 20.4679 5 32.3496C5 35.8591 5.64085 39.4848 6.92256 43.2266C8.63151 48.1426 14.7997 60.1984 21.235 59.9975C24.5995 59.9171 26.976 57.5997 31.3551 57.5997C35.6008 57.5997 37.8037 59.9975 41.5554 59.9975C48.0441 59.9037 53.6248 48.9463 55.2537 44.0169C46.5487 39.9045 47.016 31.9611 47.016 31.7066V31.7066ZM39.4593 9.71153C43.1041 5.37145 42.7704 1.41984 42.6636 -6.10352e-05C39.4459 0.187473 35.721 2.19677 33.5981 4.6749C31.2617 7.32716 29.8865 10.609 30.1802 14.3061C33.6649 14.574 36.8425 12.779 39.4593 9.71153V9.71153Z" fill="black"/>
</svg>
