<svg width="60" height="60" viewBox="0 0 60 60" fill="none" xmlns="http://www.w3.org/2000/svg">
<path fill-rule="evenodd" clip-rule="evenodd" d="M56 9.89998C58.2822 9.43671 60 7.41896 60 5C60 2.23858 57.7614 0 55 0C52.2386 0 50 2.23858 50 5C50 7.41896 51.7178 9.43671 54 9.89998V24C54 24.5523 53.5523 25 53 25H45C44.4477 25 44 25.4477 44 26C44 26.5523 44.4477 27 45 27H53C54.6569 27 56 25.6569 56 24V9.89998ZM52 5C52 3.34315 53.3431 2 55 2C56.6569 2 58 3.34315 58 5C58 6.65685 56.6569 8 55 8C53.3431 8 52 6.65685 52 5Z" fill="#050606"/>
<path fill-rule="evenodd" clip-rule="evenodd" d="M48 42C48 39.581 49.7178 37.5633 52 37.1V36C52 35.4477 51.5523 35 51 35H45C44.4477 35 44 34.5523 44 34C44 33.4477 44.4477 33 45 33H51C52.6569 33 54 34.3431 54 36V37.1C56.2822 37.5633 58 39.581 58 42C58 44.7614 55.7614 47 53 47C50.2386 47 48 44.7614 48 42ZM50 42C50 40.3431 51.3431 39 53 39C54.6569 39 56 40.3431 56 42C56 43.6569 54.6569 45 53 45C51.3431 45 50 43.6569 50 42Z" fill="#050606"/>
<path fill-rule="evenodd" clip-rule="evenodd" d="M6 16.9C8.28224 16.4367 10 14.419 10 12C10 9.23858 7.76142 7 5 7C2.23858 7 0 9.23858 0 12C0 14.419 1.71776 16.4367 4 16.9V24C4 25.6569 5.34315 27 7 27H15C15.5523 27 16 26.5523 16 26C16 25.4477 15.5523 25 15 25H7C6.44772 25 6 24.5523 6 24V16.9ZM5 15C3.34315 15 2 13.6569 2 12C2 10.3431 3.34315 9 5 9C6.65685 9 8 10.3431 8 12C8 13.6569 6.65685 15 5 15Z" fill="#050606"/>
<path fill-rule="evenodd" clip-rule="evenodd" d="M10 34C8.34315 34 7 35.3431 7 37V44.1C4.71776 44.5633 3 46.581 3 49C3 51.7614 5.23858 54 8 54C10.7614 54 13 51.7614 13 49C13 46.581 11.2822 44.5633 9 44.1V37C9 36.4477 9.44772 36 10 36H14.5C15.0523 36 15.5 35.5523 15.5 35C15.5 34.4477 15.0523 34 14.5 34H10ZM8 46C6.34315 46 5 47.3431 5 49C5 50.6569 6.34315 52 8 52C9.65685 52 11 50.6569 11 49C11 47.3431 9.65685 46 8 46Z" fill="#050606"/>
<path fill-rule="evenodd" clip-rule="evenodd" d="M37 41C37.5523 41 38 41.4477 38 42V47.1C40.2822 47.5633 42 49.581 42 52C42 54.7614 39.7614 57 37 57C34.2386 57 32 54.7614 32 52C32 49.581 33.7178 47.5633 36 47.1V42C36 41.4477 36.4477 41 37 41ZM37 49C35.3431 49 34 50.3431 34 52C34 53.6569 35.3431 55 37 55C38.6569 55 40 53.6569 40 52C40 50.3431 38.6569 49 37 49Z" fill="#050606"/>
<path fill-rule="evenodd" clip-rule="evenodd" d="M24 42C24 41.4477 23.5523 41 23 41C22.4477 41 22 41.4477 22 42V50.1C19.7178 50.5633 18 52.581 18 55C18 57.7614 20.2386 60 23 60C25.7614 60 28 57.7614 28 55C28 52.581 26.2822 50.5633 24 50.1V42ZM23 52C21.3431 52 20 53.3431 20 55C20 56.6569 21.3431 58 23 58C24.6569 58 26 56.6569 26 55C26 53.3431 24.6569 52 23 52Z" fill="#050606"/>
<path d="M30 5C25.5841 5 22 8.5815 22 13V18H20V13C20 7.4765 24.4799 3 30 3C35.5233 3 40 7.47672 40 13V18H38V13C38 8.58128 34.4187 5 30 5Z" fill="#050606"/>
<path fill-rule="evenodd" clip-rule="evenodd" d="M19 20C17.3431 20 16 21.3431 16 23V37C16 38.6569 17.3431 40 19 40H41C42.6569 40 44 38.6569 44 37V23C44 21.3431 42.6569 20 41 20H19ZM14 23C14 20.2386 16.2386 18 19 18H41C43.7614 18 46 20.2386 46 23V37C46 39.7614 43.7614 42 41 42H19C16.2386 42 14 39.7614 14 37V23Z" fill="#050606"/>
<path fill-rule="evenodd" clip-rule="evenodd" d="M28 28C28 26.8954 28.8954 26 30 26C31.1046 26 32 26.8954 32 28C32 28.7403 31.5978 29.3866 31 29.7324V32C31 32.5523 30.5523 33 30 33C29.4477 33 29 32.5523 29 32V29.7324C28.4022 29.3866 28 28.7403 28 28Z" fill="#050606"/>
</svg>
