<svg width="60" height="60" fill="none" xmlns="http://www.w3.org/2000/svg"><path d="M20.133 46.898c-3.328-3.914-5.461-9.703-5.602-16.195v-1.406c.14-6.492 2.297-12.281 5.602-16.195 4.312-5.579 10.64-8.086 17.789-8.086 4.406 0 8.555.304 12.07 2.648A29.685 29.685 0 0 0 30.117 0H30C13.43 0 0 13.43 0 30c0 16.078 12.656 29.227 28.57 29.977.47.023.961.023 1.43.023a29.805 29.805 0 0 0 19.992-7.64c-3.515 2.343-7.43 2.437-11.836 2.437-7.125.023-13.734-2.297-18.023-7.899Z" fill="url(#a)"/><path d="M20.133 13.102c2.742-3.258 6.305-5.204 10.195-5.204 8.742 0 15.82 9.891 15.82 22.125 0 12.235-7.078 22.125-15.82 22.125-3.89 0-7.43-1.968-10.195-5.203 4.312 5.578 10.71 9.14 17.836 9.14 4.383 0 8.508-1.335 12.023-3.679C56.132 46.875 60 38.883 60 30S56.133 13.125 49.992 7.64c-3.515-2.343-7.617-3.68-12.023-3.68-7.149 0-13.547 3.54-17.836 9.142Z" fill="url(#b)"/><defs><linearGradient id="a" x1="24.998" y1=".978" x2="24.998" y2="59.127" gradientUnits="userSpaceOnUse"><stop offset=".3" stop-color="#FF1B2D"/><stop offset=".438" stop-color="#FA1A2C"/><stop offset=".594" stop-color="#ED1528"/><stop offset=".758" stop-color="#D60E21"/><stop offset=".927" stop-color="#B70519"/><stop offset="1" stop-color="#A70014"/></linearGradient><linearGradient id="b" x1="40.062" y1="4.406" x2="40.062" y2="55.835" gradientUnits="userSpaceOnUse"><stop stop-color="#9C0000"/><stop offset=".7" stop-color="#FF4B4B"/></linearGradient></defs></svg>