<svg width="60" height="60" viewBox="0 0 60 60" fill="none" xmlns="http://www.w3.org/2000/svg">
<path d="M35.0001 32.0159C35.0001 32.5682 35.4478 33.0159 36.0001 33.0159C36.5524 33.0159 37.0001 32.5682 37.0001 32.0159H35.0001ZM9.99137 43C10.5437 43 10.9914 42.5523 10.9914 42C10.9914 41.4477 10.5437 41 9.99137 41V43ZM19 32C19 32.5523 19.4477 33 20 33C20.5523 33 21 32.5523 21 32H19ZM21 27C21 26.4477 20.5523 26 20 26C19.4477 26 19 26.4477 19 27H21ZM10 19C10 19.5523 10.4477 20 11 20C11.5523 20 12 19.5523 12 19H10ZM28 19C28 19.5523 28.4477 20 29 20C29.5523 20 30 19.5523 30 19H28ZM48.9957 43C48.9957 42.4477 48.548 42 47.9957 42C47.4434 42 46.9957 42.4477 46.9957 43H48.9957ZM46.9957 51C46.9957 51.5523 47.4434 52 47.9957 52C48.548 52 48.9957 51.5523 48.9957 51H46.9957ZM18 57H54V55H18V57ZM57 54V40H55V54H57ZM54 37H18V39H54V37ZM15 40V54H17V40H15ZM18 37C16.3431 37 15 38.3431 15 40H17C17 39.4477 17.4477 39 18 39V37ZM57 40C57 38.3431 55.6568 37 54 37V39C54.5523 39 55 39.4477 55 40H57ZM54 57C55.6568 57 57 55.6569 57 54H55C55 54.5523 54.5523 55 54 55V57ZM18 55C17.4477 55 17 54.5523 17 54H15C15 55.6569 16.3431 57 18 57V55ZM37.0001 32.0159V23H35.0001V32.0159H37.0001ZM32.0001 18H8.00012V20H32.0001V18ZM3.00012 23V38H5.00012V23H3.00012ZM8.00012 43H9.99137V41H8.00012V43ZM3.00012 38C3.00012 40.7614 5.2387 43 8.00012 43V41C6.34327 41 5.00012 39.6569 5.00012 38H3.00012ZM8.00012 18C5.2387 18 3.00012 20.2386 3.00012 23H5.00012C5.00012 21.3431 6.34327 20 8.00012 20V18ZM37.0001 23C37.0001 20.2386 34.7615 18 32.0001 18V20C33.657 20 35.0001 21.3431 35.0001 23H37.0001ZM21 32V27H19V32H21ZM12 19V13H10V19H12ZM12 13C12 8.5815 15.5841 5 20 5V3C14.4799 3 10 7.4765 10 13H12ZM20 5C24.4187 5 28 8.58128 28 13H30C30 7.47672 25.5233 3 20 3V5ZM28 13V19H30V13H28ZM21.0001 28C21.0001 28.5517 20.5518 29 20.0001 29V31C21.6564 31 23.0001 29.6563 23.0001 28H21.0001ZM20.0001 29C19.4484 29 19.0001 28.5517 19.0001 28H17.0001C17.0001 29.6563 18.3438 31 20.0001 31V29ZM19.0001 28C19.0001 27.4483 19.4484 27 20.0001 27V25C18.3438 25 17.0001 26.3437 17.0001 28H19.0001ZM20.0001 27C20.5518 27 21.0001 27.4483 21.0001 28H23.0001C23.0001 26.3437 21.6564 25 20.0001 25V27ZM27 47C27 47.5523 26.5523 48 26 48V50C27.6568 50 29 48.6569 29 47H27ZM26 48C25.4477 48 25 47.5523 25 47H23C23 48.6569 24.3431 50 26 50V48ZM25 47C25 46.4477 25.4477 46 26 46V44C24.3431 44 23 45.3431 23 47H25ZM26 46C26.5523 46 27 46.4477 27 47H29C29 45.3431 27.6568 44 26 44V46ZM35 47C35 47.5523 34.5523 48 34 48V50C35.6568 50 37 48.6569 37 47H35ZM34 48C33.4477 48 33 47.5523 33 47H31C31 48.6569 32.3431 50 34 50V48ZM33 47C33 46.4477 33.4477 46 34 46V44C32.3431 44 31 45.3431 31 47H33ZM34 46C34.5523 46 35 46.4477 35 47H37C37 45.3431 35.6568 44 34 44V46ZM43 47C43 47.5523 42.5523 48 42 48V50C43.6568 50 45 48.6569 45 47H43ZM42 48C41.4477 48 41 47.5523 41 47H39C39 48.6569 40.3431 50 42 50V48ZM41 47C41 46.4477 41.4477 46 42 46V44C40.3431 44 39 45.3431 39 47H41ZM42 46C42.5523 46 43 46.4477 43 47H45C45 45.3431 43.6568 44 42 44V46ZM46.9957 43V51H48.9957V43H46.9957Z" fill="#25282D"/>
</svg>
