<svg width="60" height="60" viewBox="0 0 60 60" fill="none" xmlns="http://www.w3.org/2000/svg">
<path fill-rule="evenodd" clip-rule="evenodd" d="M3 32C3 29.2386 5.23858 27 8 27H52C54.7614 27 57 29.2386 57 32V55C57 57.7614 54.7614 60 52 60H8C5.23858 60 3 57.7614 3 55V32ZM8 29C6.34315 29 5 30.3431 5 32V55C5 56.6569 6.34315 58 8 58H52C53.6569 58 55 56.6569 55 55V32C55 30.3431 53.6569 29 52 29H8Z" fill="#050606"/>
<path fill-rule="evenodd" clip-rule="evenodd" d="M28.1847 49.8764L4.39492 31.7962L5.60508 30.2038L29.3949 48.2841C29.7525 48.5559 30.2475 48.5559 30.6051 48.2841L54.3949 30.2038L55.6051 31.7962L31.8153 49.8764C30.7424 50.6918 29.2576 50.6918 28.1847 49.8764Z" fill="#050606"/>
<path fill-rule="evenodd" clip-rule="evenodd" d="M30 2C28.8954 2 28 2.89543 28 4C28 5.10457 28.8954 6 30 6C31.1046 6 32 5.10457 32 4C32 2.89543 31.1046 2 30 2ZM26 4C26 1.79086 27.7909 0 30 0C32.2091 0 34 1.79086 34 4C34 6.20914 32.2091 8 30 8C27.7909 8 26 6.20914 26 4Z" fill="#050606"/>
<path fill-rule="evenodd" clip-rule="evenodd" d="M30 6C30.5523 6 31 6.44772 31 7V13.7143C31 13.7143 31 13.7142 31 13.7143C31.0007 13.7157 31.0031 13.7203 31.0091 13.7265C31.0243 13.7421 31.0506 13.7566 31.0828 13.7593C37.7662 14.317 43 19.9769 43 26.8571C43 27.4094 42.5523 27.8571 42 27.8571C41.4477 27.8571 41 27.4094 41 26.8571C41 21.006 36.5525 16.2227 30.9165 15.7524C29.9018 15.6677 29 14.839 29 13.7143V7C29 6.44772 29.4477 6 30 6ZM17.5553 16.8543C17.8955 16.6854 18.302 16.7238 18.6045 16.9534L25.8045 22.4177C26.2445 22.7516 26.3305 23.3789 25.9966 23.8188C25.6627 24.2588 25.0354 24.3447 24.5955 24.0109L19 19.7643V26.8571C19 33.0224 23.936 38 30 38C32.9945 38 35.7097 36.7891 37.6957 34.8189C38.0878 34.43 38.721 34.4325 39.1099 34.8246C39.4989 35.2167 39.4964 35.8499 39.1043 36.2388C36.7613 38.563 33.5466 40 30 40C22.8092 40 17 34.1046 17 26.8571V17.75C17 17.3702 17.2152 17.0232 17.5553 16.8543Z" fill="#050606"/>
</svg>
