<svg width="60" height="60" viewBox="0 0 60 60" fill="none" xmlns="http://www.w3.org/2000/svg">
<path d="M24.4333 32H8.5C6.5486 32 4.96667 30.4181 4.96667 28.4667L4.96667 8.53332C4.96667 6.58192 6.5486 5 8.5 5L50.4667 5C52.4181 5 54 6.58192 54 8.53332V28.4667C54 30.4181 52.4181 32 50.4667 32" stroke="#25282D" stroke-width="2" stroke-linecap="round" stroke-linejoin="round"/>
<path fill-rule="evenodd" clip-rule="evenodd" d="M32.0911 32.9413L38.9222 54.7584C39.1024 55.3323 39.5619 55.7753 40.1421 55.9344C40.7222 56.0935 41.3435 55.9468 41.7912 55.5451L45.3999 45.3998L55.4157 43.2798C55.8561 42.8831 56.0683 42.292 55.9806 41.7058C55.8929 41.1196 55.5171 40.6164 54.98 40.366L34.5267 30.8189C33.8934 30.5231 33.1453 30.6284 32.6183 31.0876C32.0913 31.5468 31.8847 32.2735 32.0911 32.9413Z" stroke="#25282D" stroke-width="2" stroke-linecap="round" stroke-linejoin="round"/>
<path fill-rule="evenodd" clip-rule="evenodd" d="M17 17C18.1046 17 19 17.8954 19 19C19 20.1046 18.1046 21 17 21C15.8954 21 15 20.1046 15 19C14.9986 18.4691 15.2089 17.9596 15.5842 17.5842C15.9596 17.2089 16.4691 16.9986 17 17Z" stroke="#25282D" stroke-width="2" stroke-linecap="round" stroke-linejoin="round"/>
<path fill-rule="evenodd" clip-rule="evenodd" d="M29 17C30.1046 17 31 17.8954 31 19C31 20.1046 30.1046 21 29 21C27.8954 21 27 20.1046 27 19C26.9986 18.4691 27.2089 17.9596 27.5842 17.5842C27.9596 17.2089 28.4691 16.9986 29 17Z" stroke="#25282D" stroke-width="2" stroke-linecap="round" stroke-linejoin="round"/>
<path fill-rule="evenodd" clip-rule="evenodd" d="M41 17C42.1046 17 43 17.8954 43 19C43 20.1046 42.1046 21 41 21C39.8954 21 39 20.1046 39 19C38.9986 18.4691 39.2089 17.9596 39.5842 17.5842C39.9596 17.2089 40.4691 16.9986 41 17Z" stroke="#25282D" stroke-width="2" stroke-linecap="round" stroke-linejoin="round"/>
</svg>
