<svg width="60" height="60" fill="none" xmlns="http://www.w3.org/2000/svg"><path d="M30 60c16.569 0 30-13.431 30-30C60 13.431 46.569 0 30 0 13.431 0 0 13.431 0 30c0 16.569 13.431 30 30 30Z" fill="#CED8E3"/><path d="M30 57.75c15.326 0 27.75-12.424 27.75-27.75S45.326 2.25 30 2.25 2.25 14.674 2.25 30 14.674 57.75 30 57.75Z" fill="#2A94E1"/><path d="M30.047 9c-.188 0-.352-.14-.352-.328V3.773c0-.187.164-.328.352-.328.187 0 .351.141.351.329v4.898c-.023.187-.164.328-.351.328Z" fill="#fff"/><path d="M30.047 9.024c-.211 0-.375-.164-.375-.352V3.774c0-.188.164-.352.375-.352.21 0 .375.164.375.352v4.898c0 .188-.188.352-.375.352Zm0-5.555c-.164 0-.328.14-.328.305v4.898c0 .164.14.305.328.305.164 0 .328-.141.328-.305V3.774c-.023-.164-.164-.305-.328-.305ZM32.39 6.375c-.187-.023-.327-.164-.327-.351l.164-2.18a.341.341 0 0 1 .375-.305c.187.024.328.164.328.352l-.164 2.18a.341.341 0 0 1-.375.304Z" fill="#fff"/><path d="M32.39 6.398a.38.38 0 0 1-.35-.375l.163-2.18c.024-.187.188-.35.399-.327a.38.38 0 0 1 .351.375l-.164 2.18c-.023.21-.187.35-.398.327Zm.212-2.835c-.164 0-.329.117-.329.28l-.164 2.18c0 .165.118.305.305.329.164 0 .328-.118.328-.282l.164-2.18c0-.163-.14-.304-.304-.328ZM34.149 9.422a.36.36 0 0 1-.282-.399l.961-4.804c.047-.188.211-.305.399-.258a.36.36 0 0 1 .28.398l-.96 4.805c-.024.164-.21.281-.398.258Z" fill="#fff"/><path d="M34.149 9.445a.382.382 0 0 1-.305-.421l.96-4.805a.377.377 0 0 1 .446-.281c.21.046.328.234.305.421l-.961 4.805c-.047.188-.235.305-.445.281Zm1.1-5.46a.336.336 0 0 0-.374.234l-.96 4.805a.332.332 0 0 0 .257.375.337.337 0 0 0 .375-.235l.96-4.805c.024-.187-.093-.328-.257-.374ZM36.96 7.313a.349.349 0 0 1-.257-.422l.586-2.11c.047-.187.234-.281.422-.234a.35.35 0 0 1 .258.422l-.586 2.11c-.047.187-.235.28-.422.234Z" fill="#fff"/><path d="M36.96 7.336c-.187-.047-.327-.258-.257-.445l.586-2.11a.374.374 0 0 1 .445-.258c.188.047.328.258.258.446l-.586 2.11c-.047.187-.234.304-.445.257Zm.774-2.742c-.164-.047-.351.047-.398.21l-.586 2.11c-.047.164.047.328.234.375.164.047.352-.047.399-.21l.586-2.11a.337.337 0 0 0-.235-.375ZM38.11 10.617a.336.336 0 0 1-.188-.445l1.875-4.524c.07-.164.281-.257.445-.164.188.07.258.282.188.446l-1.875 4.523c-.07.164-.282.258-.446.164Z" fill="#fff"/><path d="M38.11 10.64a.365.365 0 0 1-.212-.468l1.875-4.523c.07-.188.282-.258.493-.188a.364.364 0 0 1 .21.469l-1.874 4.523c-.094.188-.305.282-.493.188Zm2.132-5.132a.318.318 0 0 0-.422.164l-1.875 4.523c-.07.165.024.329.188.399s.351 0 .422-.164l1.875-4.524a.334.334 0 0 0-.188-.398ZM41.274 9.117c-.165-.094-.235-.281-.165-.445l.985-1.945a.343.343 0 0 1 .469-.141c.164.094.234.281.164.445l-.985 1.946a.342.342 0 0 1-.468.14Z" fill="#fff"/><path d="M41.274 9.14a.358.358 0 0 1-.165-.491l.985-1.946a.358.358 0 0 1 .492-.164.358.358 0 0 1 .164.492l-.984 1.946a.358.358 0 0 1-.492.164Zm1.289-2.554c-.165-.07-.352-.023-.422.14l-.985 1.946c-.07.14 0 .328.14.422.165.07.352.023.423-.14l.984-1.946c.07-.14 0-.328-.14-.422ZM41.742 12.586c-.164-.117-.21-.328-.094-.469l2.72-4.055c.093-.164.304-.187.468-.093.164.117.21.328.094.468l-2.72 4.055a.317.317 0 0 1-.468.094Z" fill="#fff"/><path d="M41.742 12.61a.405.405 0 0 1-.117-.516l2.719-4.055a.37.37 0 0 1 .515-.094.405.405 0 0 1 .118.516l-2.72 4.055a.375.375 0 0 1-.515.094Zm3.094-4.618c-.14-.093-.352-.07-.445.07l-2.72 4.055a.305.305 0 0 0 .095.422c.14.094.351.07.445-.07l2.719-4.032a.333.333 0 0 0-.094-.445ZM45.164 11.719c-.14-.117-.187-.328-.07-.469l1.36-1.71a.334.334 0 0 1 .468-.048c.14.117.187.328.07.469l-1.36 1.711a.335.335 0 0 1-.468.047Z" fill="#fff"/><path d="M45.14 11.742c-.163-.117-.187-.351-.07-.516l1.36-1.71c.117-.164.351-.188.515-.047.164.117.188.351.07.515l-1.359 1.711c-.117.164-.351.188-.515.047Zm1.758-2.226c-.14-.118-.328-.094-.445.046l-1.36 1.712a.333.333 0 0 0 .07.445c.142.117.33.094.446-.047l1.36-1.711c.094-.14.07-.352-.07-.445ZM44.93 15.235c-.14-.141-.14-.352 0-.47l3.468-3.445a.332.332 0 0 1 .47 0c.116.118.14.352 0 .47l-3.446 3.445a.34.34 0 0 1-.492 0Z" fill="#fff"/><path d="M44.906 15.258a.368.368 0 0 1 0-.516l3.469-3.445a.368.368 0 0 1 .516 0 .368.368 0 0 1 0 .515l-3.47 3.446a.368.368 0 0 1-.515 0Zm3.961-3.938a.326.326 0 0 0-.445 0l-3.469 3.446a.326.326 0 0 0 0 .445.326.326 0 0 0 .445 0l3.47-3.445c.116-.117.116-.305 0-.446ZM48.445 15.047c-.117-.14-.117-.352.024-.469l1.664-1.406a.334.334 0 0 1 .469.047c.117.14.117.351-.024.469l-1.664 1.406a.335.335 0 0 1-.469-.047Z" fill="#fff"/><path d="M48.422 15.07c-.14-.164-.117-.398.023-.515l1.664-1.406c.14-.141.375-.118.516.046.14.164.117.399-.023.516l-1.665 1.406c-.14.14-.375.117-.515-.047Zm2.156-1.851c-.117-.14-.305-.14-.445-.047l-1.664 1.406a.326.326 0 0 0-.024.446c.117.14.305.14.445.046l1.665-1.406c.14-.117.14-.305.023-.445ZM47.508 18.422a.317.317 0 0 1 .094-.469l4.078-2.719c.164-.093.375-.046.468.094a.317.317 0 0 1-.093.469l-4.078 2.719c-.141.093-.352.047-.47-.094Z" fill="#fff"/><path d="M47.484 18.422a.375.375 0 0 1 .094-.516l4.078-2.718a.36.36 0 0 1 .516.117.374.374 0 0 1-.094.515L48 18.54a.36.36 0 0 1-.516-.118Zm4.64-3.07a.305.305 0 0 0-.42-.094l-4.08 2.719c-.14.093-.187.28-.07.445.094.14.282.187.423.094l4.078-2.72a.332.332 0 0 0 .07-.444ZM51 18.914a.341.341 0 0 1 .117-.469l1.899-1.078c.164-.094.375-.023.468.14a.341.341 0 0 1-.117.47l-1.898 1.078c-.164.093-.375.024-.469-.14Z" fill="#fff"/><path d="M50.977 18.938c-.094-.188-.047-.399.117-.493l1.898-1.078c.164-.094.399-.023.492.14.094.188.047.4-.117.493l-1.898 1.078c-.164.094-.399.024-.492-.14Zm2.484-1.407c-.094-.164-.281-.21-.422-.117l-1.898 1.078a.337.337 0 0 0-.118.422c.094.164.282.211.422.117l1.899-1.078c.14-.07.187-.258.117-.422ZM49.43 22.031c-.07-.187 0-.375.187-.445l4.524-1.875c.164-.07.375.023.445.188.07.187 0 .374-.188.445l-4.523 1.875a.335.335 0 0 1-.445-.188Z" fill="#fff"/><path d="M49.406 22.055a.389.389 0 0 1 .188-.492l4.523-1.875a.364.364 0 0 1 .469.21c.07.188 0 .399-.188.493l-4.523 1.875a.364.364 0 0 1-.469-.211Zm5.133-2.133a.334.334 0 0 0-.398-.188l-4.524 1.875c-.164.07-.234.258-.164.422.07.164.258.235.399.188l4.523-1.875c.164-.07.234-.258.164-.422ZM52.734 23.203c-.07-.187.024-.375.211-.445l2.063-.68c.164-.07.375.047.422.211.07.188-.024.375-.211.445l-2.063.68c-.164.07-.351-.023-.422-.21Z" fill="#fff"/><path d="M52.71 23.227a.358.358 0 0 1 .235-.469l2.063-.68c.187-.07.398.047.469.235a.358.358 0 0 1-.235.468l-2.062.68a.4.4 0 0 1-.47-.234Zm2.72-.89c-.047-.165-.235-.259-.399-.212l-2.062.68c-.164.047-.235.234-.188.398.047.164.235.258.399.211l2.062-.68a.323.323 0 0 0 .188-.398ZM50.625 25.992c-.047-.187.07-.375.258-.398l4.804-.938c.188-.046.352.094.399.282.047.187-.07.375-.258.398l-4.805.938c-.187.023-.375-.094-.398-.282Z" fill="#fff"/><path d="M50.578 25.992a.377.377 0 0 1 .281-.445l4.805-.938c.188-.047.375.094.422.305a.377.377 0 0 1-.281.445L51 26.297c-.188.047-.375-.093-.422-.305Zm5.461-1.055a.314.314 0 0 0-.352-.257l-4.804.937c-.164.024-.281.211-.235.375a.314.314 0 0 0 .352.258l4.805-.938c.164-.046.28-.21.234-.375ZM53.625 27.797c-.023-.188.094-.352.281-.375l2.156-.258a.342.342 0 0 1 .375.305c.024.187-.093.351-.28.375L54 28.102c-.164.023-.352-.118-.375-.305Z" fill="#fff"/><path d="M53.602 27.797c-.024-.211.117-.399.304-.422l2.156-.258a.365.365 0 0 1 .399.328c.023.211-.117.399-.305.422L54 28.125a.364.364 0 0 1-.398-.328Zm2.835-.328c-.023-.164-.187-.305-.351-.281l-2.156.258a.314.314 0 0 0-.258.351c.023.164.187.305.351.281l2.157-.258a.314.314 0 0 0 .257-.351ZM51 30.07c0-.187.14-.351.328-.351h4.899c.187 0 .328.164.328.351 0 .188-.14.352-.328.352h-4.899c-.187 0-.328-.164-.328-.352Z" fill="#fff"/><path d="M50.977 30.07c0-.21.164-.375.351-.375h4.899c.187 0 .351.165.351.375 0 .211-.164.375-.351.375h-4.899c-.187 0-.351-.164-.351-.375Zm5.554.024c0-.164-.14-.328-.305-.328h-4.898c-.164 0-.305.14-.305.328 0 .164.141.328.305.328h4.899c.164-.024.304-.164.304-.328ZM53.602 32.438c.023-.188.164-.329.351-.329l2.18.164a.341.341 0 0 1 .304.375c-.023.188-.164.329-.351.329l-2.18-.164c-.164-.024-.304-.188-.304-.375Z" fill="#fff"/><path d="M53.578 32.438a.38.38 0 0 1 .375-.352l2.18.164c.187.023.351.188.328.398a.38.38 0 0 1-.375.352l-2.18-.164c-.187-.023-.328-.211-.328-.398Zm2.86.21a.297.297 0 0 0-.282-.328l-2.18-.164c-.163 0-.304.117-.328.305a.297.297 0 0 0 .282.328l2.18.164c.163 0 .304-.14.327-.305ZM50.578 34.148a.36.36 0 0 1 .399-.28l4.804.96c.188.047.305.211.258.399a.36.36 0 0 1-.398.281l-4.805-.961c-.164-.023-.281-.211-.258-.398Z" fill="#fff"/><path d="M50.555 34.148a.382.382 0 0 1 .422-.304l4.804.96a.377.377 0 0 1 .281.446.382.382 0 0 1-.421.305l-4.805-.961c-.188-.047-.305-.235-.281-.446Zm5.46 1.102a.336.336 0 0 0-.234-.375l-4.805-.96a.332.332 0 0 0-.375.257.336.336 0 0 0 .235.375l4.805.961c.187.023.328-.094.375-.258ZM52.688 36.961a.349.349 0 0 1 .421-.258l2.11.586c.187.047.28.235.234.422a.348.348 0 0 1-.422.258l-2.11-.586c-.187-.047-.28-.235-.233-.422Z" fill="#fff"/><path d="M52.664 36.961c.047-.188.258-.328.445-.258l2.11.586a.374.374 0 0 1 .258.445c-.047.188-.258.328-.446.258l-2.11-.586c-.187-.047-.304-.234-.257-.445Zm2.742.773c.047-.164-.047-.351-.21-.398l-2.11-.586c-.164-.047-.328.047-.375.234-.047.164.047.352.21.399l2.11.586a.336.336 0 0 0 .375-.235ZM49.383 38.086a.335.335 0 0 1 .445-.188l4.524 1.875c.164.07.257.282.187.446-.07.187-.281.258-.445.187l-4.524-1.875c-.187-.07-.258-.281-.187-.445Z" fill="#fff"/><path d="M49.36 38.063a.364.364 0 0 1 .468-.212l4.524 1.876c.187.07.257.28.187.492a.365.365 0 0 1-.469.21l-4.523-1.874c-.188-.094-.258-.305-.188-.492Zm5.132 2.132a.318.318 0 0 0-.164-.422l-4.523-1.875c-.164-.07-.328.024-.399.188-.07.164 0 .352.164.422l4.524 1.875c.164.047.351-.024.398-.188ZM50.906 41.25c.094-.164.281-.234.445-.164l1.946.984c.164.07.234.282.14.469-.093.164-.28.235-.445.164l-1.945-.984c-.164-.094-.235-.305-.14-.469Z" fill="#fff"/><path d="M50.883 41.227a.358.358 0 0 1 .492-.164l1.945.984a.358.358 0 0 1 .164.492.358.358 0 0 1-.492.164l-1.945-.984c-.188-.07-.258-.305-.164-.492Zm2.531 1.289c.07-.164.023-.352-.14-.422l-1.946-.985c-.14-.07-.328 0-.422.141-.07.164-.023.352.14.422l1.946.984c.164.07.352.024.422-.14ZM47.46 41.696c.118-.165.306-.212.47-.094l4.078 2.719c.164.093.187.304.094.468-.118.164-.305.211-.47.094l-4.077-2.719c-.164-.117-.211-.328-.094-.468Z" fill="#fff"/><path d="M47.437 41.672a.405.405 0 0 1 .516-.117l4.078 2.718a.37.37 0 0 1 .094.516.405.405 0 0 1-.516.117l-4.078-2.718c-.187-.118-.21-.352-.094-.516Zm4.618 3.094c.093-.14.07-.352-.07-.446l-4.079-2.718a.306.306 0 0 0-.422.093c-.093.141-.07.352.07.446l4.079 2.718c.14.094.328.047.422-.093ZM48.328 45.094c.117-.14.328-.188.469-.07l1.71 1.335c.141.118.165.329.048.47-.117.14-.328.187-.47.07l-1.71-1.336a.334.334 0 0 1-.047-.47Z" fill="#fff"/><path d="M48.305 45.07c.117-.164.351-.187.515-.07l1.711 1.336c.164.117.188.352.07.516-.117.164-.351.187-.515.07l-1.711-1.336c-.164-.117-.188-.352-.07-.516Zm2.25 1.758c.117-.14.093-.328-.047-.445l-1.711-1.336a.332.332 0 0 0-.445.07c-.118.14-.094.328.046.446l1.711 1.335c.14.094.329.07.446-.07ZM44.836 44.86c.14-.141.352-.141.469 0l3.468 3.445c.141.14.118.351 0 .468-.14.141-.351.141-.468 0l-3.47-3.445a.357.357 0 0 1 0-.469Z" fill="#fff"/><path d="M44.836 44.836a.367.367 0 0 1 .516 0l3.468 3.445a.368.368 0 0 1 0 .516.368.368 0 0 1-.515 0l-3.47-3.445a.332.332 0 0 1 0-.516Zm3.937 3.914a.326.326 0 0 0 0-.445l-3.468-3.446a.326.326 0 0 0-.445 0 .325.325 0 0 0 0 .446l3.468 3.445c.117.14.305.14.445 0ZM45.047 48.352c.14-.118.351-.118.469.023l1.43 1.64a.335.335 0 0 1-.048.47c-.14.117-.351.117-.468-.024L45 48.821c-.117-.118-.094-.329.047-.47Z" fill="#fff"/><path d="M45.023 48.352a.368.368 0 0 1 .516.023l1.43 1.64c.14.141.117.376-.047.516a.368.368 0 0 1-.516-.023l-1.43-1.64c-.117-.165-.117-.4.047-.517Zm1.875 2.132c.14-.117.14-.304.047-.445l-1.43-1.64a.326.326 0 0 0-.445-.024c-.14.117-.14.305-.047.445l1.43 1.641c.117.14.305.14.445.023ZM41.672 47.461a.318.318 0 0 1 .469.094l2.718 4.054c.094.164.047.375-.094.47a.317.317 0 0 1-.468-.095l-2.72-4.054c-.093-.164-.046-.375.095-.469Z" fill="#fff"/><path d="M41.672 47.438a.375.375 0 0 1 .515.093l2.72 4.055a.36.36 0 0 1-.118.516.375.375 0 0 1-.516-.094l-2.718-4.055a.357.357 0 0 1 .117-.516Zm3.094 4.617a.305.305 0 0 0 .093-.422l-2.718-4.055c-.094-.14-.282-.164-.445-.07a.305.305 0 0 0-.094.422l2.718 4.054c.094.118.305.165.446.07ZM41.18 50.93a.341.341 0 0 1 .468.117l1.079 1.898c.093.164.023.375-.141.469a.341.341 0 0 1-.469-.117l-1.078-1.898c-.07-.165-.023-.376.14-.47Z" fill="#fff"/><path d="M41.18 50.906c.187-.093.398-.047.492.117l1.078 1.899c.094.164.047.399-.14.492-.188.094-.4.047-.493-.117l-1.078-1.898c-.094-.165-.047-.376.14-.493Zm1.406 2.485c.14-.094.21-.282.117-.422l-1.078-1.898a.337.337 0 0 0-.422-.118c-.14.094-.21.281-.117.422l1.078 1.898c.07.141.281.212.422.118ZM38.062 49.383c.188-.07.375 0 .446.164l1.898 4.523c.07.164-.023.375-.187.446-.164.07-.375 0-.445-.164l-1.899-4.524c-.07-.164.023-.375.187-.445Z" fill="#fff"/><path d="M38.062 49.36c.188-.07.399 0 .493.187l1.898 4.523a.365.365 0 0 1-.21.469.388.388 0 0 1-.493-.188l-1.898-4.523c-.07-.164.023-.375.21-.469Zm2.133 5.132c.164-.07.235-.258.164-.398l-1.898-4.524a.318.318 0 0 0-.422-.164c-.164.07-.235.258-.164.399l1.898 4.523c.094.164.258.234.422.164ZM36.914 52.711c.188-.07.375.023.445.211l.68 2.063c.07.163-.047.374-.21.421-.188.07-.376-.023-.446-.21l-.68-2.063c-.07-.164.023-.352.21-.422Z" fill="#fff"/><path d="M36.89 52.688a.364.364 0 0 1 .47.21l.68 2.063c.07.188-.048.398-.236.469a.364.364 0 0 1-.468-.211l-.68-2.063a.399.399 0 0 1 .235-.468Zm.915 2.695c.164-.047.257-.235.21-.399l-.68-2.062c-.046-.164-.233-.234-.397-.188-.165.047-.258.235-.211.399l.68 2.062a.297.297 0 0 0 .398.188ZM34.149 50.578c.187-.047.375.07.398.258l.984 4.805c.047.187-.094.351-.281.398-.187.047-.375-.07-.398-.258l-.985-4.804a.375.375 0 0 1 .282-.399Z" fill="#fff"/><path d="M34.149 50.555a.377.377 0 0 1 .445.281l.984 4.805c.047.187-.094.398-.281.422a.377.377 0 0 1-.445-.282l-.985-4.804c-.047-.188.07-.376.282-.422Zm1.1 5.46c.165-.023.282-.187.259-.374l-.985-4.805c-.023-.164-.21-.281-.375-.234-.164.023-.28.187-.257.375l.984 4.804c.047.164.21.258.375.235ZM32.367 53.625a.36.36 0 0 1 .399.281l.28 2.157a.341.341 0 0 1-.304.375.36.36 0 0 1-.398-.282L32.063 54a.341.341 0 0 1 .304-.375Z" fill="#fff"/><path d="M32.367 53.602c.211-.024.399.117.422.304l.281 2.157a.365.365 0 0 1-.328.398c-.21.023-.398-.117-.422-.305L32.04 54a.365.365 0 0 1 .327-.398Zm.352 2.812c.164-.023.304-.188.281-.352l-.281-2.156a.314.314 0 0 0-.352-.258c-.164.024-.305.188-.281.352l.281 2.156a.314.314 0 0 0 .352.258ZM29.953 51c.188 0 .352.14.352.328v4.899c0 .187-.164.328-.352.328-.187 0-.351-.14-.351-.328v-4.899c.023-.187.164-.328.351-.328Z" fill="#fff"/><path d="M29.953 50.977c.211 0 .375.164.375.351v4.899c0 .187-.164.351-.375.351-.21 0-.375-.164-.375-.351v-4.899c0-.187.188-.351.375-.351Zm0 5.554c.164 0 .328-.14.328-.304v-4.899c0-.164-.14-.305-.328-.305-.164 0-.328.141-.328.305v4.899c.023.164.164.304.328.304ZM27.61 53.625c.187.023.327.164.327.352l-.164 2.18a.341.341 0 0 1-.375.304c-.187-.023-.328-.164-.328-.352l.164-2.18a.342.342 0 0 1 .375-.304Z" fill="#fff"/><path d="M27.61 53.602a.38.38 0 0 1 .35.375l-.163 2.18c-.024.187-.188.35-.399.327a.38.38 0 0 1-.351-.375l.164-2.18c.023-.21.187-.35.398-.328Zm-.212 2.836c.164 0 .329-.118.329-.282l.164-2.18c0-.163-.118-.304-.305-.328-.164 0-.328.118-.328.282l-.164 2.18c0 .163.14.304.304.328ZM25.852 50.578a.36.36 0 0 1 .28.398l-.96 4.805c-.047.188-.211.305-.399.258a.36.36 0 0 1-.28-.398l.96-4.805c.024-.164.211-.281.399-.258Z" fill="#fff"/><path d="M25.852 50.555c.21.047.328.234.304.422l-.96 4.804a.377.377 0 0 1-.446.282.383.383 0 0 1-.305-.422l.961-4.805c.047-.188.235-.305.446-.281Zm-1.102 5.46a.336.336 0 0 0 .375-.234l.96-4.804a.332.332 0 0 0-.257-.375.337.337 0 0 0-.375.234l-.96 4.805c-.024.187.093.328.257.375ZM23.039 52.688a.35.35 0 0 1 .258.421l-.586 2.11c-.047.187-.234.281-.422.234a.35.35 0 0 1-.258-.422l.586-2.11c.047-.187.234-.28.422-.233Z" fill="#fff"/><path d="M23.039 52.664c.188.047.328.258.258.445l-.586 2.11a.374.374 0 0 1-.445.258c-.188-.047-.328-.258-.258-.446l.586-2.109c.047-.188.234-.305.445-.258Zm-.773 2.742c.164.047.351-.047.398-.21l.586-2.11c.047-.164-.047-.328-.234-.375-.164-.047-.352.047-.399.21l-.586 2.11a.336.336 0 0 0 .235.375ZM21.89 49.383c.188.07.258.281.188.445l-1.875 4.524c-.07.164-.281.258-.445.164-.164-.094-.258-.282-.188-.445l1.875-4.524c.07-.164.282-.258.446-.164Z" fill="#fff"/><path d="M21.89 49.36a.365.365 0 0 1 .212.468l-1.875 4.524c-.07.187-.282.258-.493.187a.364.364 0 0 1-.21-.468l1.874-4.524c.094-.188.305-.281.493-.188Zm-2.132 5.132c.164.07.351 0 .422-.164l1.875-4.523c.07-.164-.024-.328-.188-.399a.318.318 0 0 0-.422.165l-1.875 4.523a.334.334 0 0 0 .188.398ZM18.727 50.883c.164.094.234.281.164.445l-.985 1.945a.343.343 0 0 1-.469.141c-.164-.093-.234-.281-.164-.445l.985-1.945a.342.342 0 0 1 .469-.141Z" fill="#fff"/><path d="M18.727 50.86a.358.358 0 0 1 .164.492l-.985 1.945a.358.358 0 0 1-.492.164.358.358 0 0 1-.164-.492l.984-1.945a.358.358 0 0 1 .493-.165Zm-1.29 2.554c.164.07.352.024.422-.14l.985-1.946c.07-.14 0-.328-.14-.422-.165-.07-.352-.023-.423.141l-.984 1.945c-.07.141 0 .329.14.422ZM18.258 47.414c.164.117.21.328.094.469l-2.72 4.055c-.093.163-.304.187-.468.093-.164-.117-.21-.328-.094-.468l2.72-4.055a.317.317 0 0 1 .468-.094Z" fill="#fff"/><path d="M18.258 47.39a.405.405 0 0 1 .117.516l-2.719 4.055a.37.37 0 0 1-.515.094.405.405 0 0 1-.118-.516l2.72-4.055a.375.375 0 0 1 .515-.093Zm-3.094 4.618c.14.093.352.07.445-.07l2.72-4.055a.305.305 0 0 0-.095-.422c-.14-.094-.351-.07-.445.07l-2.719 4.032a.334.334 0 0 0 .094.445ZM14.836 48.281c.14.117.187.328.07.469l-1.36 1.711a.334.334 0 0 1-.468.047c-.14-.117-.187-.328-.07-.469l1.36-1.71a.334.334 0 0 1 .468-.048Z" fill="#fff"/><path d="M14.86 48.258c.163.117.187.351.07.515l-1.36 1.711c-.117.164-.351.188-.515.047-.164-.117-.188-.351-.07-.515l1.359-1.711c.117-.164.351-.188.515-.047Zm-1.758 2.226c.14.117.328.094.445-.047l1.36-1.71a.332.332 0 0 0-.071-.446c-.141-.117-.328-.093-.445.047l-1.36 1.711c-.093.14-.07.352.07.445ZM15.07 44.766c.14.14.14.351 0 .468l-3.468 3.446a.332.332 0 0 1-.47 0c-.116-.117-.14-.352 0-.47l3.446-3.444a.34.34 0 0 1 .492 0Z" fill="#fff"/><path d="M15.094 44.742a.368.368 0 0 1 0 .516l-3.47 3.445a.368.368 0 0 1-.514 0 .368.368 0 0 1 0-.515l3.468-3.446a.367.367 0 0 1 .516 0Zm-3.961 3.938a.326.326 0 0 0 .445 0l3.469-3.446a.326.326 0 0 0 0-.445.326.326 0 0 0-.445 0l-3.47 3.445c-.116.117-.116.305 0 .446ZM11.555 44.953c.117.14.117.352-.024.469l-1.664 1.406a.335.335 0 0 1-.469-.047c-.117-.14-.117-.351.024-.468l1.664-1.407a.334.334 0 0 1 .469.047Z" fill="#fff"/><path d="M11.578 44.93c.14.164.117.398-.023.515L9.89 46.852c-.14.14-.375.117-.516-.047-.14-.164-.117-.399.023-.516l1.665-1.406c.14-.14.375-.117.515.047ZM9.422 46.78c.117.141.305.141.445.047l1.664-1.406a.326.326 0 0 0 .024-.445c-.118-.141-.305-.141-.445-.047l-1.665 1.406c-.14.117-.14.305-.023.445ZM12.492 41.578a.317.317 0 0 1-.094.469L8.32 44.766c-.164.093-.375.047-.468-.094a.317.317 0 0 1 .093-.469l4.079-2.719c.14-.093.35-.047.468.094Z" fill="#fff"/><path d="M12.516 41.578a.375.375 0 0 1-.094.516l-4.078 2.718a.36.36 0 0 1-.516-.117.375.375 0 0 1 .094-.515L12 41.46a.36.36 0 0 1 .516.117Zm-4.64 3.07c.093.141.28.188.42.094l4.079-2.718c.14-.094.187-.282.07-.446a.305.305 0 0 0-.421-.094l-4.079 2.72a.332.332 0 0 0-.07.444ZM9 41.086a.341.341 0 0 1-.117.469l-1.899 1.078c-.164.094-.375.023-.468-.14a.341.341 0 0 1 .117-.47l1.898-1.078c.164-.093.375-.023.469.141Z" fill="#fff"/><path d="M9.024 41.063c.093.187.046.398-.118.492l-1.898 1.078c-.164.093-.399.023-.492-.14-.094-.188-.047-.4.117-.493l1.898-1.078c.164-.094.399-.023.493.14Zm-2.485 1.406c.094.164.281.21.422.117l1.898-1.078a.337.337 0 0 0 .118-.422c-.094-.164-.282-.211-.422-.117l-1.899 1.078c-.14.07-.188.258-.117.422ZM10.57 37.969c.07.187 0 .375-.187.445L5.859 40.29c-.164.07-.375-.023-.445-.187-.07-.188 0-.375.188-.446l4.523-1.875c.164-.07.375 0 .445.188Z" fill="#fff"/><path d="M10.594 37.945c.07.188 0 .399-.188.492l-4.523 1.876a.364.364 0 0 1-.469-.211.388.388 0 0 1 .188-.492l4.523-1.876a.364.364 0 0 1 .469.211ZM5.46 40.078c.07.164.258.235.398.188l4.524-1.875c.164-.07.234-.258.164-.422a.334.334 0 0 0-.399-.188l-4.523 1.875c-.164.07-.234.258-.164.422ZM7.266 36.797c.07.188-.024.375-.211.445l-2.063.68c-.164.07-.375-.047-.422-.211-.07-.188.024-.375.211-.445l2.063-.68c.164-.07.351.023.422.211Z" fill="#fff"/><path d="M7.289 36.773a.358.358 0 0 1-.234.47l-2.063.679c-.187.07-.398-.047-.469-.234a.358.358 0 0 1 .235-.47l2.062-.679a.398.398 0 0 1 .469.234Zm-2.718.891c.046.164.234.258.398.211l2.062-.68c.165-.046.235-.234.188-.398-.047-.164-.234-.258-.399-.21l-2.062.68a.323.323 0 0 0-.188.397ZM9.375 34.008c.047.188-.07.375-.258.398l-4.805.938c-.187.047-.351-.094-.398-.281-.047-.188.07-.375.258-.399l4.805-.937c.187-.024.375.094.398.281Z" fill="#fff"/><path d="M9.422 34.008a.377.377 0 0 1-.281.445l-4.805.938c-.188.047-.375-.094-.422-.305a.377.377 0 0 1 .281-.445L9 33.703c.187-.047.375.094.422.305ZM3.96 35.063a.314.314 0 0 0 .351.257l4.805-.937c.164-.024.281-.211.235-.375A.315.315 0 0 0 9 33.75l-4.805.938c-.164.046-.28.21-.234.375ZM6.375 32.203c.023.188-.094.352-.281.375l-2.156.258a.341.341 0 0 1-.375-.305.324.324 0 0 1 .28-.375L6 31.898c.164-.023.352.118.375.305Z" fill="#fff"/><path d="M6.399 32.203c.023.211-.118.398-.305.422l-2.156.258a.364.364 0 0 1-.399-.328c-.023-.211.117-.399.305-.422L6 31.875a.365.365 0 0 1 .399.328Zm-2.836.328c.023.164.187.305.351.282l2.156-.258a.314.314 0 0 0 .258-.352c-.023-.164-.187-.305-.351-.281l-2.157.258a.314.314 0 0 0-.257.351ZM9 29.93c0 .187-.14.351-.328.351H3.774c-.188 0-.328-.164-.328-.351 0-.188.14-.352.328-.352h4.898c.188 0 .328.164.328.352Z" fill="#fff"/><path d="M9.024 29.93c0 .21-.165.375-.352.375H3.774c-.188 0-.352-.164-.352-.375s.164-.375.352-.375h4.898c.188 0 .352.164.352.375Zm-5.555-.024c0 .164.14.329.305.329h4.898c.164 0 .305-.141.305-.329 0-.164-.14-.328-.305-.328H3.774c-.164.024-.305.164-.305.328ZM6.399 27.563c-.024.187-.165.328-.352.328l-2.18-.164a.342.342 0 0 1-.305-.375c.024-.188.165-.329.352-.329l2.18.165c.164.023.305.187.305.375Z" fill="#fff"/><path d="M6.422 27.563a.38.38 0 0 1-.375.351l-2.18-.164c-.187-.023-.351-.188-.328-.398A.38.38 0 0 1 3.914 27l2.18.164c.187.023.328.211.328.398Zm-2.86-.211a.297.297 0 0 0 .282.328l2.18.164c.163 0 .304-.117.328-.305a.297.297 0 0 0-.282-.328l-2.18-.164c-.163 0-.304.14-.328.305ZM9.422 25.852a.36.36 0 0 1-.399.28l-4.804-.984c-.188-.046-.305-.21-.258-.398a.36.36 0 0 1 .398-.281l4.805.96c.164.048.281.235.258.423Z" fill="#fff"/><path d="M9.445 25.852a.382.382 0 0 1-.422.304l-4.804-.96a.377.377 0 0 1-.281-.446.382.382 0 0 1 .421-.305l4.805.961c.188.047.305.235.281.446Zm-5.46-1.102a.336.336 0 0 0 .234.375l4.805.961a.332.332 0 0 0 .375-.258.337.337 0 0 0-.235-.375l-4.804-.96c-.188-.024-.329.093-.376.257ZM7.313 23.04a.349.349 0 0 1-.422.257l-2.11-.586c-.187-.047-.28-.234-.234-.422a.35.35 0 0 1 .422-.258l2.11.586c.187.047.28.235.234.422Z" fill="#fff"/><path d="M7.336 23.04c-.047.187-.258.327-.445.257l-2.11-.586a.374.374 0 0 1-.258-.445c.047-.188.258-.328.446-.258l2.11.586c.187.047.304.235.257.445Zm-2.742-.775c-.047.165.047.352.21.399l2.11.586c.164.047.328-.047.375-.235.047-.164-.047-.35-.21-.398l-2.11-.586a.336.336 0 0 0-.375.234ZM10.617 21.914a.335.335 0 0 1-.445.188l-4.524-1.875c-.164-.07-.257-.282-.187-.446a.335.335 0 0 1 .445-.187l4.524 1.875c.187.07.258.281.187.445Z" fill="#fff"/><path d="M10.64 21.938a.365.365 0 0 1-.468.21l-4.524-1.875c-.187-.07-.257-.28-.187-.492a.364.364 0 0 1 .469-.21l4.523 1.874a.389.389 0 0 1 .188.493Zm-5.132-2.133c-.07.164 0 .351.164.422l4.523 1.875c.164.07.328-.024.399-.188a.318.318 0 0 0-.164-.422l-4.524-1.875c-.164-.047-.351.024-.398.188ZM9.094 18.75c-.094.164-.281.235-.445.164l-1.946-.984c-.164-.07-.234-.282-.14-.469.093-.164.28-.234.445-.164l1.945.984c.164.094.235.305.14.47Z" fill="#fff"/><path d="M9.117 18.773a.358.358 0 0 1-.492.165l-1.945-.985a.358.358 0 0 1-.164-.492.358.358 0 0 1 .492-.164l1.945.984c.188.07.258.305.164.492Zm-2.531-1.289c-.07.164-.023.352.14.422l1.946.985c.14.07.328 0 .422-.14.07-.165.023-.353-.14-.423l-1.97-.984a.289.289 0 0 0-.398.14ZM12.539 18.305c-.117.164-.305.21-.469.093l-4.055-2.695c-.163-.094-.187-.304-.093-.469a.318.318 0 0 1 .469-.093l4.078 2.718c.14.094.187.305.07.446Z" fill="#fff"/><path d="M12.562 18.328a.405.405 0 0 1-.515.117l-4.055-2.718a.37.37 0 0 1-.094-.516.405.405 0 0 1 .516-.117l4.055 2.719c.187.117.21.351.093.515Zm-4.617-3.093c-.093.14-.07.351.07.445l4.079 2.719c.14.094.328.047.422-.094.093-.14.07-.352-.07-.445l-4.08-2.72a.305.305 0 0 0-.42.095ZM11.672 14.906c-.117.141-.328.188-.469.07l-1.71-1.335a.335.335 0 0 1-.048-.469c.117-.14.328-.188.47-.07l1.71 1.336c.14.117.164.328.047.468Z" fill="#fff"/><path d="M11.695 14.93c-.117.164-.351.187-.515.07l-1.711-1.336c-.164-.117-.188-.351-.07-.515.117-.164.351-.188.515-.07l1.71 1.335c.165.118.189.351.071.516Zm-2.25-1.758c-.117.14-.093.328.047.445l1.711 1.336c.14.094.328.07.445-.07.118-.14.094-.328-.046-.445L9.89 13.102a.332.332 0 0 0-.446.07ZM15.164 15.14c-.14.141-.352.141-.469 0l-3.492-3.445a.332.332 0 0 1 0-.469c.14-.14.352-.14.469 0l3.469 3.446c.14.117.14.351.023.469Z" fill="#fff"/><path d="M15.164 15.164a.367.367 0 0 1-.515 0l-3.47-3.445a.368.368 0 0 1 0-.516.368.368 0 0 1 .516 0l3.469 3.445a.332.332 0 0 1 0 .516Zm-3.937-3.914a.326.326 0 0 0 0 .445l3.468 3.446a.326.326 0 0 0 .446 0 .326.326 0 0 0 0-.446l-3.469-3.469c-.117-.117-.305-.117-.445.024ZM14.953 11.649c-.14.117-.351.117-.469-.024l-1.43-1.64a.334.334 0 0 1 .048-.47c.14-.117.351-.117.468.024l1.43 1.64c.117.118.094.329-.047.47Z" fill="#fff"/><path d="M14.977 11.649a.368.368 0 0 1-.516-.024l-1.43-1.64c-.14-.141-.117-.376.047-.516a.367.367 0 0 1 .516.023l1.43 1.64c.117.165.117.4-.047.517Zm-1.875-2.133c-.141.117-.141.304-.047.445l1.43 1.64c.117.118.304.141.445.024.14-.117.14-.305.047-.445l-1.43-1.64c-.117-.141-.305-.141-.445-.024ZM18.328 12.54a.317.317 0 0 1-.469-.095l-2.742-4.054c-.094-.164-.047-.375.094-.469a.318.318 0 0 1 .469.094l2.718 4.054a.331.331 0 0 1-.07.47Z" fill="#fff"/><path d="M18.328 12.563a.375.375 0 0 1-.516-.094l-2.718-4.055a.36.36 0 0 1 .117-.515.375.375 0 0 1 .516.093l2.718 4.055a.357.357 0 0 1-.117.515Zm-3.094-4.618a.305.305 0 0 0-.094.422l2.719 4.055c.094.14.281.164.445.07a.305.305 0 0 0 .094-.422L15.68 8.04a.334.334 0 0 0-.446-.095ZM18.82 9.07a.341.341 0 0 1-.468-.117l-1.079-1.898c-.093-.164-.023-.375.141-.469a.341.341 0 0 1 .469.117l1.078 1.899c.07.164.023.375-.14.468Z" fill="#fff"/><path d="M18.82 9.094c-.187.094-.398.047-.492-.117L17.25 7.078c-.094-.164-.047-.398.14-.492.188-.094.4-.047.493.117l1.078 1.899c.094.164.047.375-.14.492Zm-1.406-2.485c-.14.094-.21.282-.117.422l1.078 1.899c.094.14.281.187.422.117.14-.094.21-.281.117-.422l-1.078-1.898c-.07-.14-.281-.211-.422-.118ZM21.937 10.617c-.187.07-.375 0-.445-.164L19.594 5.93c-.07-.164.023-.375.187-.446.188-.07.375 0 .445.164l1.899 4.524c.07.164-.023.375-.188.445Z" fill="#fff"/><path d="M21.937 10.64a.389.389 0 0 1-.492-.187L19.547 5.93a.364.364 0 0 1 .21-.469c.188-.07.4 0 .493.188l1.898 4.523c.07.164-.023.375-.21.469Zm-2.132-5.132c-.164.07-.235.258-.164.398l1.898 4.524c.07.164.258.234.422.164.164-.07.234-.258.164-.399l-1.899-4.523c-.093-.164-.257-.234-.421-.164ZM23.086 7.29c-.188.07-.375-.024-.445-.212l-.68-2.062c-.07-.164.047-.375.21-.422.165-.047.376.023.446.21l.68 2.063c.07.164-.024.352-.211.422Z" fill="#fff"/><path d="M23.11 7.312a.364.364 0 0 1-.47-.21l-.68-2.063c-.07-.187.048-.398.235-.469a.364.364 0 0 1 .47.211l.679 2.063a.398.398 0 0 1-.235.468Zm-.915-2.695c-.164.047-.258.235-.21.399l.68 2.062c.046.164.233.234.398.188.164-.047.257-.235.21-.399l-.68-2.062a.295.295 0 0 0-.398-.188ZM25.852 9.422c-.188.047-.375-.07-.399-.258l-.984-4.805c-.047-.187.094-.351.28-.398.189-.047.376.07.4.258l.984 4.805a.375.375 0 0 1-.281.398Z" fill="#fff"/><path d="M25.852 9.445a.377.377 0 0 1-.446-.28l-.984-4.805c-.047-.188.094-.399.281-.422a.377.377 0 0 1 .445.28l.985 4.806c.047.187-.07.375-.281.421Zm-1.102-5.46c-.164.023-.281.187-.258.374l.985 4.805c.023.164.21.281.375.235.164-.024.28-.188.257-.375l-.984-4.805a.336.336 0 0 0-.375-.235ZM27.633 6.375a.36.36 0 0 1-.399-.281l-.28-2.157a.341.341 0 0 1 .304-.375.36.36 0 0 1 .398.282L27.937 6a.341.341 0 0 1-.304.375Z" fill="#fff"/><path d="M27.633 6.398c-.211.024-.399-.117-.422-.304l-.281-2.156a.365.365 0 0 1 .328-.399c.21-.023.398.117.422.305L27.96 6a.365.365 0 0 1-.327.398Zm-.352-2.812c-.164.023-.305.187-.281.352l.281 2.156a.314.314 0 0 0 .352.258c.164-.024.305-.188.281-.352l-.281-2.156a.314.314 0 0 0-.352-.258Z" fill="#fff"/><path d="M49.383 12.375 27 26.719h-.023v.023l-.024.024-13.968 23.039 20.53-16.524.024-.023v-.023l15.844-20.86Z" fill="#000" fill-opacity=".05"/><path d="M48.96 11.04 26.837 26.765l6.562 6.515L48.961 11.04" fill="#CD151E"/><path d="m26.86 26.719 3.304 3.258 18.797-18.938L26.86 26.72Z" fill="#FA5153"/><path d="m26.86 26.719 6.562 6.515-22.125 15.727L26.86 26.719Z" fill="#ACACAC"/><path d="m11.297 48.961 18.867-18.984-3.305-3.258L11.297 48.96Z" fill="#EEE"/></svg>