<svg width="60" height="60" viewBox="0 0 60 60" fill="none" xmlns="http://www.w3.org/2000/svg">
<path fill-rule="evenodd" clip-rule="evenodd" d="M54 33C54 46.2541 43.2541 57 30 57C16.7421 57 6 46.2541 6 33C6 19.7459 16.7421 9 30 9C43.2541 9 54 19.7459 54 33Z" stroke="#25282D" stroke-width="2" stroke-linejoin="round"/>
<path d="M42 26.5443L31.5277 33.0508C30.8616 33.4647 30 32.9856 30 32.2014V15" stroke="#25282D" stroke-width="2" stroke-linecap="round" stroke-linejoin="round"/>
<path d="M30 9V3" stroke="#25282D" stroke-width="2" stroke-linecap="round" stroke-linejoin="round"/>
<path d="M21 2H39" stroke="#25282D" stroke-width="2" stroke-linecap="round" stroke-linejoin="round"/>
<path d="M14 14L11.5 11" stroke="#25282D" stroke-width="2" stroke-linecap="round" stroke-linejoin="round"/>
<path d="M14 9L9 13" stroke="#25282D" stroke-width="2" stroke-linecap="round" stroke-linejoin="round"/>
<path d="M46 14L48.5 11" stroke="#25282D" stroke-width="2" stroke-linecap="round" stroke-linejoin="round"/>
<path d="M46 9L51 13" stroke="#25282D" stroke-width="2" stroke-linecap="round" stroke-linejoin="round"/>
</svg>
