<svg width="60" height="60" viewBox="0 0 60 60" fill="none" xmlns="http://www.w3.org/2000/svg">
<path d="M51.9391 35.2054C53.5284 29.9253 53.3274 24.2679 51.3675 19.114C49.4075 13.96 45.7987 9.59858 41.1026 6.70865C36.4065 3.81871 30.8868 2.56241 25.4026 3.1353C19.9184 3.70819 14.7774 6.07813 10.78 9.87621C6.78259 13.6743 4.15299 18.6874 3.30055 24.1351C2.44811 29.5829 3.42066 35.1596 6.0668 39.9973C8.71294 44.8349 12.8842 48.662 17.9313 50.8828C22.9783 53.1035 28.618 53.5934 33.9724 52.2761" stroke="#25282D" stroke-width="2" stroke-linecap="round"/>
<path d="M21 16.8685C21 16.0698 21.8901 15.5934 22.5547 16.0365L37.7519 26.1679C38.3457 26.5638 38.3457 27.4362 37.7519 27.8321L22.5547 37.9635C21.8901 38.4066 21 37.9302 21 37.1315V16.8685Z" stroke="#25282D" stroke-width="2" stroke-linejoin="round"/>
<path fill-rule="evenodd" clip-rule="evenodd" d="M35.0789 36.2573L41.9135 57.7778C42.0938 58.3439 42.5536 58.7809 43.134 58.9378C43.7144 59.0948 44.336 58.9501 44.784 58.5539L48.3945 48.5465L58.4154 46.4553C58.856 46.064 59.0682 45.4809 58.9805 44.9027C58.8928 44.3245 58.5168 43.8282 57.9794 43.5811L37.5158 34.1638C36.8822 33.872 36.1337 33.9759 35.6064 34.4288C35.0792 34.8818 34.8724 35.5986 35.0789 36.2573Z" stroke="#25282D" stroke-width="2" stroke-linecap="round" stroke-linejoin="round"/>
</svg>
